<svg id="Camada_1" data-name="Camada 1" xmlns="http://www.w3.org/2000/svg" viewBox="0 0 474.06 185.9"><defs><style>.cls-1,.cls-4{fill:none;}.cls-2{isolation:isolate;font-size:85.18px;font-family:Chuck;}.cls-2,.cls-5{fill:#1a1e3b;}.cls-3{fill:#e61b48;}.cls-4{stroke:#1a1e3b;stroke-miterlimit:10;stroke-width:10px;}.cls-6{fill:#020203;}</style></defs><title>logo-colorido-reto</title><rect class="cls-1" x="187.72" y="17.38" width="286.34" height="115.62"/><text class="cls-2" transform="translate(187.72 85.52)">oops</text><path class="cls-3" d="M222.28,219.51,173.4,134.85a12.28,12.28,0,0,1-5.42,2.9,12.4,12.4,0,0,1-15-9.1c0-.11,0-.22-.07-.33a12.94,12.94,0,0,1-2.65,1,12.4,12.4,0,0,1-9-22.89,12.38,12.38,0,0,1,3.6-21L126.94,54.38a2.33,2.33,0,0,0-4,0L27.58,219.51a2.33,2.33,0,0,0,2,3.49H220.27A2.32,2.32,0,0,0,222.28,219.51Z" transform="translate(-15.36 -37.1)"/><path class="cls-4" d="M215.38,208.39,166.5,123.74a12.42,12.42,0,0,1-20.43-6.2c0-.11,0-.22-.06-.33a12.4,12.4,0,0,1-11.64-21.89,12.38,12.38,0,0,1,3.6-21L120,43.27a2.33,2.33,0,0,0-4,0L20.67,208.39a2.34,2.34,0,0,0,2,3.5H213.36A2.34,2.34,0,0,0,215.38,208.39Z" transform="translate(-15.36 -37.1)"/><path class="cls-5" d="M113.91,172.1H124a3.8,3.8,0,0,0,3.8-3.8V88.52a3.8,3.8,0,0,0-3.8-3.8h-10.1a3.8,3.8,0,0,0-3.8,3.8V168.3A3.8,3.8,0,0,0,113.91,172.1Z" transform="translate(-15.36 -37.1)"/><circle class="cls-5" cx="103.88" cy="147.52" r="9.77"/><path class="cls-6" d="M208.43,142.57a3.05,3.05,0,0,1-1.34-1.32,4.35,4.35,0,0,1-.46-2.08V133.7a4.73,4.73,0,0,1,.46-2.19,3.14,3.14,0,0,1,1.34-1.38,5,5,0,0,1,4.25,0,3.18,3.18,0,0,1,1.35,1.39,4.84,4.84,0,0,1,.46,2.21v.42h-2.35v-.42a2.07,2.07,0,0,0-.41-1.38,1.43,1.43,0,0,0-1.15-.48,1.49,1.49,0,0,0-1.17.48,2,2,0,0,0-.41,1.35v5.47a1.7,1.7,0,0,0,.41,1.21,1.55,1.55,0,0,0,1.17.43,1.51,1.51,0,0,0,1.16-.45,1.79,1.79,0,0,0,.41-1.25v-.41h2.36v.41a4.3,4.3,0,0,1-.47,2.11,3.12,3.12,0,0,1-1.35,1.34,5.21,5.21,0,0,1-4.26,0Z" transform="translate(-15.36 -37.1)"/><path class="cls-6" d="M219.68,142.11a4,4,0,0,1-.8-2.72,4.68,4.68,0,0,1,1-3.26,3.9,3.9,0,0,1,3-1.08h1.66l.17,2.12H222.9a1.55,1.55,0,0,0-1.31.55,2.59,2.59,0,0,0-.44,1.66,1.51,1.51,0,0,0,.38,1.14,1.57,1.57,0,0,0,1.14.37,1.65,1.65,0,0,0,1.32-.49,2.17,2.17,0,0,0,.44-1.47l.26,1.19a4,4,0,0,1-.31,1.61,2,2,0,0,1-.87,1,2.84,2.84,0,0,1-1.44.32A3,3,0,0,1,219.68,142.11Zm4.76-8.75a1.69,1.69,0,0,0-.42-1.21,1.55,1.55,0,0,0-1.17-.43,1.28,1.28,0,0,0-1,.43,1.82,1.82,0,0,0-.37,1.21h-2.31a3.67,3.67,0,0,1,1-2.74,3.79,3.79,0,0,1,2.78-1,4.52,4.52,0,0,1,2.07.43,3,3,0,0,1,1.31,1.27,4.17,4.17,0,0,1,.45,2v9.46h-2.3Z" transform="translate(-15.36 -37.1)"/><path class="cls-6" d="M231,129.88h6v2.24h-6Zm1.28-1.76a3.62,3.62,0,0,1,.8-2.56,3.16,3.16,0,0,1,2.43-.87H237v2.25h-1.4a.82.82,0,0,0-.69.32,1.36,1.36,0,0,0-.25.87v14.7h-2.37V128.12Z" transform="translate(-15.36 -37.1)"/><path class="cls-6" d="M242.64,142.51a3.38,3.38,0,0,1-1.35-1.47,5.27,5.27,0,0,1-.47-2.32v-4.53a6.14,6.14,0,0,1,.46-2.46,3.35,3.35,0,0,1,1.31-1.55,3.85,3.85,0,0,1,2.08-.53,4.17,4.17,0,0,1,2.09.49,3.08,3.08,0,0,1,1.33,1.43,5.12,5.12,0,0,1,.46,2.28v3.42h-6.07v-2h3.8V133.9a2.52,2.52,0,0,0-.42-1.56,1.4,1.4,0,0,0-1.19-.55,1.33,1.33,0,0,0-1.16.59,2.9,2.9,0,0,0-.41,1.67v4.72a2.25,2.25,0,0,0,.44,1.48,1.49,1.49,0,0,0,1.24.53,1.58,1.58,0,0,0,1.14-.39,1.48,1.48,0,0,0,.41-1.12v-.08h2.27v.08a3.69,3.69,0,0,1-1,2.76,3.88,3.88,0,0,1-2.82,1A4,4,0,0,1,242.64,142.51Z" transform="translate(-15.36 -37.1)"/><path class="cls-6" d="M252.64,129.88h5.59v2.24h-5.59ZM254.7,142a3.86,3.86,0,0,1-.74-2.57V126.11h2.37v13.35a1.31,1.31,0,0,0,.25.87.83.83,0,0,0,.7.32h1v2.24H257A2.89,2.89,0,0,1,254.7,142Z" transform="translate(-15.36 -37.1)"/><path class="cls-6" d="M264.47,142.51a3.27,3.27,0,0,1-1.35-1.47,5.27,5.27,0,0,1-.47-2.32v-4.53a6,6,0,0,1,.46-2.46,3.35,3.35,0,0,1,1.31-1.55,3.82,3.82,0,0,1,2.07-.53,4.18,4.18,0,0,1,2.1.49,3.13,3.13,0,0,1,1.33,1.43,5.12,5.12,0,0,1,.46,2.28v3.42h-6.07v-2h3.8V133.9a2.59,2.59,0,0,0-.42-1.56,1.4,1.4,0,0,0-1.19-.55,1.33,1.33,0,0,0-1.16.59,2.82,2.82,0,0,0-.41,1.67v4.72a2.2,2.2,0,0,0,.44,1.48,1.48,1.48,0,0,0,1.23.53,1.62,1.62,0,0,0,1.15-.39,1.48,1.48,0,0,0,.4-1.12v-.08h2.27v.08a3.68,3.68,0,0,1-1,2.76,3.88,3.88,0,0,1-2.82,1A4,4,0,0,1,264.47,142.51Z" transform="translate(-15.36 -37.1)"/><path class="cls-6" d="M275.46,129.88h2.37v13h-2.37Zm5.85,2.15H281a3.37,3.37,0,0,0-2.27.7,2.5,2.5,0,0,0-.84,1.94l-.26-2.53a4.92,4.92,0,0,1,1.63-1.83,3.85,3.85,0,0,1,2.19-.65V132Z" transform="translate(-15.36 -37.1)"/><path class="cls-6" d="M286,124.85h2.37v2.37H286Zm0,5h2.37v13H286Z" transform="translate(-15.36 -37.1)"/><path class="cls-6" d="M294.24,142.11a4,4,0,0,1-.8-2.72,4.63,4.63,0,0,1,1-3.26,3.89,3.89,0,0,1,3-1.08h1.66l.18,2.12h-1.83a1.58,1.58,0,0,0-1.31.55,2.66,2.66,0,0,0-.43,1.66,1.51,1.51,0,0,0,.38,1.14,1.55,1.55,0,0,0,1.14.37,1.66,1.66,0,0,0,1.32-.49,2.17,2.17,0,0,0,.44-1.47l.26,1.19a4,4,0,0,1-.31,1.61,2,2,0,0,1-.87,1,2.89,2.89,0,0,1-1.44.32A3,3,0,0,1,294.24,142.11Zm4.75-8.75a1.69,1.69,0,0,0-.41-1.21,1.55,1.55,0,0,0-1.17-.43,1.27,1.27,0,0,0-1,.43,1.77,1.77,0,0,0-.37,1.21H293.7a3.67,3.67,0,0,1,1-2.74,3.78,3.78,0,0,1,2.78-1,4.52,4.52,0,0,1,2.07.43,3,3,0,0,1,1.31,1.27,4.17,4.17,0,0,1,.45,2v9.46H299v-9.47Z" transform="translate(-15.36 -37.1)"/><path class="cls-6" d="M315.45,136.14a2.5,2.5,0,0,0-.89,2.05,2.77,2.77,0,0,0,.69,2,2.57,2.57,0,0,0,1.95.72,2.62,2.62,0,0,0,2-.85,5.7,5.7,0,0,0,1.25-2.49,15.33,15.33,0,0,0,.43-3.92h2.24a15.12,15.12,0,0,1-.75,5.06,6.79,6.79,0,0,1-2.18,3.2,5.49,5.49,0,0,1-3.45,1.09,4.75,4.75,0,0,1-2.39-.57,3.71,3.71,0,0,1-1.53-1.65,6,6,0,0,1-.52-2.61,4.48,4.48,0,0,1,1.22-3.3,5.32,5.32,0,0,1,3.46-1.43l1,2A4,4,0,0,0,315.45,136.14Zm.92-.81a21.7,21.7,0,0,1-1.28-2.23,10.24,10.24,0,0,1-.78-2.1,9,9,0,0,1-.27-2.23,4.49,4.49,0,0,1,1-3.14,4.33,4.33,0,0,1,5.73,0,4.43,4.43,0,0,1,1,3.1v1.34h-2.36v-1.34a2.26,2.26,0,0,0-.38-1.41,1.52,1.52,0,0,0-2.25,0,2.34,2.34,0,0,0-.39,1.45,6.56,6.56,0,0,0,.22,1.7,8.59,8.59,0,0,0,.63,1.7,16.19,16.19,0,0,0,1,1.79l5.92,8.86h-3Z" transform="translate(-15.36 -37.1)"/><path class="cls-6" d="M335.61,142.6a2.79,2.79,0,0,1-1-1.32,5.65,5.65,0,0,1-.34-2.09v-5.53a6,6,0,0,1,.34-2.16,2.86,2.86,0,0,1,1-1.37,2.62,2.62,0,0,1,3.17.13,4.32,4.32,0,0,1,1.2,1.68l-.26,1.77a2.67,2.67,0,0,0-.18-1A1.57,1.57,0,0,0,339,132a1.5,1.5,0,0,0-.83-.23,1.35,1.35,0,0,0-1.13.51,2.25,2.25,0,0,0-.41,1.43v5.44a1.88,1.88,0,0,0,.41,1.29,1.42,1.42,0,0,0,1.13.46,1.57,1.57,0,0,0,.83-.21,1.45,1.45,0,0,0,.52-.64,2.52,2.52,0,0,0,.18-1l.17,1.73a3.51,3.51,0,0,1-1.06,1.66,2.54,2.54,0,0,1-1.68.6A2.69,2.69,0,0,1,335.61,142.6Zm-.27,4.53a3.63,3.63,0,0,1-1-2.71v-.32h2.36v.32a1.66,1.66,0,0,0,.4,1.18,1.5,1.5,0,0,0,1.11.41,1.45,1.45,0,0,0,1.11-.41,1.63,1.63,0,0,0,.39-1.16V129.88h2.36v14.56a3.94,3.94,0,0,1-.46,2,3.09,3.09,0,0,1-1.35,1.25,4.93,4.93,0,0,1-2.13.43A3.86,3.86,0,0,1,335.34,147.13Z" transform="translate(-15.36 -37.1)"/><path class="cls-6" d="M348,142.11a4,4,0,0,1-.8-2.72,4.63,4.63,0,0,1,1-3.26,3.89,3.89,0,0,1,3-1.08h1.66l.17,2.12H351.2a1.56,1.56,0,0,0-1.31.55,2.65,2.65,0,0,0-.44,1.66,1.55,1.55,0,0,0,.38,1.14,1.59,1.59,0,0,0,1.15.37,1.66,1.66,0,0,0,1.32-.49,2.17,2.17,0,0,0,.44-1.47l.26,1.19a4,4,0,0,1-.31,1.61,2,2,0,0,1-.87,1,2.89,2.89,0,0,1-1.44.32A3,3,0,0,1,348,142.11Zm4.75-8.75a1.65,1.65,0,0,0-.42-1.21,1.51,1.51,0,0,0-1.16-.43,1.27,1.27,0,0,0-1,.43,1.77,1.77,0,0,0-.37,1.21h-2.31a3.67,3.67,0,0,1,1-2.74,3.76,3.76,0,0,1,2.78-1,4.52,4.52,0,0,1,2.07.43,3.09,3.09,0,0,1,1.31,1.27,4.17,4.17,0,0,1,.45,2v9.46h-2.31v-9.47Z" transform="translate(-15.36 -37.1)"/><path class="cls-6" d="M360.35,129.88h2.37v13h-2.37Zm5.46,4a2.51,2.51,0,0,0-.37-1.49,1.33,1.33,0,0,0-1.12-.48,1.43,1.43,0,0,0-1.2.51,2.51,2.51,0,0,0-.39,1.54l-.26-1.86a3.89,3.89,0,0,1,1.2-1.81,2.76,2.76,0,0,1,1.78-.6,2.65,2.65,0,0,1,1.48.39,2.47,2.47,0,0,1,.93,1.18,4.92,4.92,0,0,1,.32,1.91v9.69h-2.37v-9Zm5.44,0a2.31,2.31,0,0,0-.4-1.49,1.45,1.45,0,0,0-1.19-.48,1.3,1.3,0,0,0-1.12.51,2.64,2.64,0,0,0-.37,1.54l-.34-1.79a3.86,3.86,0,0,1,1.18-1.86,2.74,2.74,0,0,1,1.78-.62,2.78,2.78,0,0,1,1.54.4,2.55,2.55,0,0,1,1,1.19,4.86,4.86,0,0,1,.33,1.9v9.68h-2.37v-9Z" transform="translate(-15.36 -37.1)"/><path class="cls-6" d="M380.49,142.51a3.31,3.31,0,0,1-1.34-1.47,5.13,5.13,0,0,1-.47-2.32v-4.53a6.14,6.14,0,0,1,.45-2.46,3.31,3.31,0,0,1,1.32-1.55,3.8,3.8,0,0,1,2.07-.53,4.23,4.23,0,0,1,2.1.49,3.19,3.19,0,0,1,1.33,1.43,5.13,5.13,0,0,1,.45,2.28v3.42h-6.06v-2h3.79V133.9a2.52,2.52,0,0,0-.42-1.56,1.39,1.39,0,0,0-1.19-.55,1.35,1.35,0,0,0-1.16.59,2.9,2.9,0,0,0-.41,1.67v4.72a2.25,2.25,0,0,0,.44,1.48,1.5,1.5,0,0,0,1.24.53,1.58,1.58,0,0,0,1.14-.39,1.48,1.48,0,0,0,.41-1.12v-.08h2.27v.08a3.69,3.69,0,0,1-1,2.76,3.88,3.88,0,0,1-2.82,1A4,4,0,0,1,380.49,142.51Z" transform="translate(-15.36 -37.1)"/><path class="cls-6" d="M400.16,139.4a1.37,1.37,0,0,0,.24.87.86.86,0,0,0,.71.32h.71v2.24h-1a2.84,2.84,0,0,1-2.24-.9,3.74,3.74,0,0,1-.79-2.53V124.69h2.37V139.4Z" transform="translate(-15.36 -37.1)"/><path class="cls-6" d="M407.72,142.57a2.93,2.93,0,0,1-1.28-1.28,4.26,4.26,0,0,1-.45-2v-5.91a4.13,4.13,0,0,1,.45-2,3,3,0,0,1,1.28-1.27,4.49,4.49,0,0,1,2-.42,4.38,4.38,0,0,1,2,.42,2.92,2.92,0,0,1,1.26,1.27,4.25,4.25,0,0,1,.43,2v6a4.32,4.32,0,0,1-.43,2,2.92,2.92,0,0,1-1.26,1.27,4.13,4.13,0,0,1-2,.44A4.24,4.24,0,0,1,407.72,142.57Zm3-2.26a1.58,1.58,0,0,0,.36-1.11v-5.75a1.58,1.58,0,0,0-.36-1.1,1.27,1.27,0,0,0-1-.39,1.28,1.28,0,0,0-1,.39,1.58,1.58,0,0,0-.36,1.1v5.75a1.61,1.61,0,0,0,.36,1.11,1.27,1.27,0,0,0,1,.4A1.24,1.24,0,0,0,410.7,140.31Z" transform="translate(-15.36 -37.1)"/><path class="cls-6" d="M420.85,139.29a1.39,1.39,0,0,0,.38,1.05,1.49,1.49,0,0,0,1.1.37,1.43,1.43,0,0,0,1.08-.38,1.5,1.5,0,0,0,.36-1.1l.17,1.6a3.45,3.45,0,0,1-1,1.63,2.4,2.4,0,0,1-1.59.55,2.61,2.61,0,0,1-2.17-.93,4.33,4.33,0,0,1-.73-2.71v-9.51h2.37v9.43Zm2.92-9.41h2.37v13h-2.37Z" transform="translate(-15.36 -37.1)"/><path class="cls-6" d="M431.44,129.88h2.37v13h-2.37Zm5.54,4a2.4,2.4,0,0,0-.39-1.5,1.45,1.45,0,0,0-1.19-.49,1.41,1.41,0,0,0-1.19.52,2.49,2.49,0,0,0-.39,1.54l-.26-1.86a3.94,3.94,0,0,1,1.2-1.81,2.81,2.81,0,0,1,1.77-.6,2.54,2.54,0,0,1,2.1.9,4,4,0,0,1,.73,2.59v9.68H437v-9Z" transform="translate(-15.36 -37.1)"/><path class="cls-6" d="M445.72,142.6a2.79,2.79,0,0,1-1-1.32,5.65,5.65,0,0,1-.34-2.09v-5.53a6,6,0,0,1,.34-2.16,2.86,2.86,0,0,1,1-1.37,2.62,2.62,0,0,1,3.17.13,4.32,4.32,0,0,1,1.2,1.68l-.26,1.77a2.67,2.67,0,0,0-.18-1,1.57,1.57,0,0,0-.52-.66,1.5,1.5,0,0,0-.83-.23,1.37,1.37,0,0,0-1.13.51,2.25,2.25,0,0,0-.41,1.43v5.44a1.88,1.88,0,0,0,.41,1.29,1.42,1.42,0,0,0,1.13.46,1.57,1.57,0,0,0,.83-.21,1.38,1.38,0,0,0,.52-.64,2.52,2.52,0,0,0,.18-1l.17,1.73a3.51,3.51,0,0,1-1.06,1.66,2.54,2.54,0,0,1-1.68.6A2.69,2.69,0,0,1,445.72,142.6Zm-.27,4.53a3.66,3.66,0,0,1-1-2.71v-.32h2.36v.32a1.7,1.7,0,0,0,.39,1.18,1.5,1.5,0,0,0,1.11.41,1.45,1.45,0,0,0,1.11-.41,1.63,1.63,0,0,0,.39-1.16V129.88h2.36v14.56a3.94,3.94,0,0,1-.46,2,3.12,3.12,0,0,1-1.34,1.25,5,5,0,0,1-2.14.43A3.86,3.86,0,0,1,445.45,147.13Z" transform="translate(-15.36 -37.1)"/><path class="cls-6" d="M459.05,142.51a3.31,3.31,0,0,1-1.34-1.47,5.13,5.13,0,0,1-.47-2.32v-4.53a6.14,6.14,0,0,1,.45-2.46,3.31,3.31,0,0,1,1.32-1.55,3.8,3.8,0,0,1,2.07-.53,4.23,4.23,0,0,1,2.1.49,3.19,3.19,0,0,1,1.33,1.43,5.13,5.13,0,0,1,.45,2.28v3.42H458.9v-2h3.79V133.9a2.52,2.52,0,0,0-.42-1.56,1.38,1.38,0,0,0-1.19-.55,1.32,1.32,0,0,0-1.15.59,2.82,2.82,0,0,0-.42,1.67v4.72a2.25,2.25,0,0,0,.44,1.48,1.5,1.5,0,0,0,1.24.53,1.58,1.58,0,0,0,1.14-.39,1.48,1.48,0,0,0,.41-1.12v-.08H465v.08a3.65,3.65,0,0,1-1,2.76,3.86,3.86,0,0,1-2.82,1A4,4,0,0,1,459.05,142.51Z" transform="translate(-15.36 -37.1)"/></svg>