<?xml version="1.0" encoding="utf-8"?>
<!-- Generator: Adobe Illustrator 23.1.0, SVG Export Plug-In . SVG Version: 6.00 Build 0)  -->
<svg version="1.1" id="Camada_1" xmlns="http://www.w3.org/2000/svg" xmlns:xlink="http://www.w3.org/1999/xlink" x="0px" y="0px"
	 viewBox="0 0 1000 1000" style="enable-background:new 0 0 1000 1000;" xml:space="preserve">
<style type="text/css">
	.st0{fill:#E61B48;}
	.st1{fill:none;stroke:#1A1E3B;stroke-width:8;stroke-miterlimit:10;}
	.st2{fill:#1A1E3B;}
	.st3{fill:none;}
	.st4{font-family:'Chuck';}
	.st5{font-size:168.249px;}
	.st6{fill:#020203;}
	.st7{fill:#FFFFFF;}
</style>
<g>
	<path class="st0" d="M698.18,524.63L601.63,357.4c-2.94,2.69-6.57,4.71-10.71,5.73c-13.15,3.22-26.41-4.82-29.64-17.97
		c-0.05-0.22-0.08-0.43-0.12-0.65c-1.64,0.83-3.39,1.51-5.25,1.97c-13.15,3.22-26.41-4.82-29.64-17.97
		c-2.69-10.97,2.49-22.01,11.91-27.24c-3.76-3.22-6.61-7.59-7.88-12.76c-2.97-12.12,3.65-24.32,14.99-28.68l-35.43-61.37
		c-1.77-3.06-6.19-3.06-7.96,0L313.58,524.63c-1.77,3.06,0.44,6.89,3.98,6.89H694.2C697.73,531.52,699.95,527.69,698.18,524.63z"/>
</g>
<g>
	<path class="st1" d="M686.51,510.57l-96.55-167.23c-2.94,2.69-6.57,4.71-10.71,5.73c-13.15,3.22-26.41-4.82-29.64-17.97
		c-0.05-0.22-0.08-0.43-0.12-0.65c-1.64,0.83-3.39,1.51-5.25,1.97c-13.15,3.22-26.41-4.82-29.64-17.97
		c-2.69-10.97,2.49-22.01,11.91-27.24c-3.76-3.22-6.61-7.59-7.88-12.76c-2.97-12.12,3.65-24.32,14.99-28.68l-35.43-61.37
		c-1.77-3.06-6.19-3.06-7.96,0L301.91,510.57c-1.77,3.06,0.44,6.89,3.98,6.89h376.63C686.06,517.46,688.28,513.63,686.51,510.57z"/>
</g>
<path class="st2" d="M485.85,438.87h20.41c4.01,0,7.27-3.25,7.27-7.27V273.55c0-4.01-3.25-7.27-7.27-7.27h-20.41
	c-4.01,0-7.27,3.25-7.27,7.27V431.6C478.58,435.62,481.84,438.87,485.85,438.87z"/>
<circle class="st2" cx="496.61" cy="463.61" r="19.3"/>
<rect x="239.46" y="567.95" class="st3" width="565.6" height="451.93"/>
<text transform="matrix(1 0 0 1 239.4604 702.546)" class="st2 st4 st5">oops</text>
<g>
	<g>
		<path class="st6" d="M252.44,741.94c-1.15-0.59-2.03-1.46-2.64-2.6c-0.61-1.14-0.91-2.52-0.91-4.13v-10.79
			c0-1.69,0.3-3.13,0.91-4.33s1.49-2.1,2.65-2.72c1.16-0.62,2.55-0.94,4.18-0.94c1.64,0,3.05,0.31,4.21,0.94
			c1.17,0.63,2.05,1.54,2.66,2.75c0.61,1.21,0.91,2.66,0.91,4.35v0.84h-4.63v-0.84c0-1.17-0.27-2.07-0.81-2.71
			c-0.54-0.64-1.3-0.96-2.27-0.96c-0.99,0-1.75,0.32-2.3,0.95c-0.55,0.63-0.83,1.52-0.83,2.67v10.79c0,1.04,0.27,1.84,0.83,2.4
			c0.55,0.57,1.32,0.85,2.3,0.85c0.97,0,1.73-0.3,2.28-0.89c0.55-0.59,0.83-1.41,0.83-2.46v-0.81h4.66v0.81
			c0,1.63-0.31,3.02-0.92,4.17c-0.62,1.15-1.51,2.03-2.67,2.64s-2.58,0.91-4.24,0.91C254.99,742.83,253.59,742.53,252.44,741.94z"/>
		<path class="st6" d="M274.67,741.04c-1.05-1.19-1.58-2.99-1.58-5.39c0-2.88,0.66-5.02,1.97-6.44s3.29-2.13,5.94-2.13h3.28
			l0.34,4.19h-3.6c-1.15,0-2.01,0.37-2.59,1.1c-0.58,0.73-0.86,1.83-0.86,3.29c0,1,0.25,1.75,0.75,2.24
			c0.5,0.49,1.25,0.74,2.25,0.74c1.17,0,2.04-0.32,2.61-0.97c0.57-0.65,0.86-1.62,0.86-2.92l0.52,2.37
			c-0.02,1.27-0.22,2.33-0.6,3.18c-0.39,0.85-0.96,1.49-1.73,1.91c-0.76,0.42-1.71,0.63-2.85,0.63
			C277.29,742.83,275.72,742.23,274.67,741.04z M284.06,723.75c0-1.04-0.28-1.84-0.83-2.4c-0.55-0.57-1.32-0.85-2.3-0.85
			c-0.87,0-1.55,0.28-2.03,0.85c-0.48,0.57-0.73,1.37-0.73,2.4h-4.56c0-2.33,0.65-4.14,1.95-5.41c1.3-1.27,3.13-1.91,5.5-1.91
			c1.59,0,2.96,0.29,4.09,0.86s2,1.41,2.59,2.5c0.59,1.09,0.89,2.41,0.89,3.96v18.71h-4.56V723.75z"/>
		<path class="st6" d="M297.11,716.87h11.81v4.44h-11.81V716.87z M299.63,713.4c0-2.23,0.53-3.92,1.59-5.06
			c1.06-1.14,2.66-1.71,4.79-1.71h2.91v4.44h-2.76c-0.59,0-1.05,0.21-1.37,0.64s-0.48,1-0.48,1.72v29.03h-4.68V713.4z"/>
		<path class="st6" d="M320.02,741.83c-1.16-0.67-2.05-1.63-2.66-2.9c-0.62-1.26-0.92-2.79-0.92-4.58v-8.95
			c0-1.89,0.3-3.51,0.9-4.86c0.6-1.35,1.47-2.37,2.6-3.07s2.5-1.05,4.09-1.05c1.61,0,2.99,0.33,4.14,0.97
			c1.15,0.65,2.02,1.59,2.62,2.83c0.6,1.24,0.9,2.74,0.9,4.5v6.75h-11.98v-3.87h7.49v-2.79c0-1.33-0.28-2.36-0.83-3.08
			c-0.55-0.72-1.33-1.08-2.35-1.08c-0.99,0-1.75,0.39-2.29,1.16c-0.54,0.77-0.81,1.87-0.81,3.3v9.34c0,1.25,0.29,2.22,0.86,2.92
			c0.57,0.7,1.39,1.05,2.44,1.05c0.97,0,1.72-0.26,2.25-0.78c0.53-0.52,0.8-1.25,0.8-2.21v-0.17h4.49v0.17
			c0,2.35-0.66,4.17-1.97,5.45c-1.31,1.28-3.17,1.92-5.57,1.92C322.57,742.83,321.17,742.49,320.02,741.83z"/>
		<path class="st6" d="M339.76,716.87h11.04v4.44h-11.04V716.87z M343.83,740.88c-0.97-1.13-1.45-2.83-1.45-5.08v-26.37h4.68v26.37
			c0,0.74,0.16,1.31,0.48,1.73c0.32,0.41,0.78,0.62,1.39,0.62h1.87v4.44h-2.42C346.32,742.58,344.8,742.01,343.83,740.88z"/>
		<path class="st6" d="M363.14,741.83c-1.16-0.67-2.05-1.63-2.66-2.9c-0.62-1.26-0.92-2.79-0.92-4.58v-8.95
			c0-1.89,0.3-3.51,0.9-4.86c0.6-1.35,1.47-2.37,2.6-3.07s2.5-1.05,4.09-1.05c1.61,0,2.99,0.33,4.14,0.97
			c1.15,0.65,2.02,1.59,2.62,2.83c0.6,1.24,0.9,2.74,0.9,4.5v6.75h-11.98v-3.87h7.49v-2.79c0-1.33-0.28-2.36-0.83-3.08
			c-0.55-0.72-1.33-1.08-2.35-1.08c-0.99,0-1.75,0.39-2.29,1.16c-0.54,0.77-0.81,1.87-0.81,3.3v9.34c0,1.25,0.29,2.22,0.86,2.92
			c0.57,0.7,1.39,1.05,2.44,1.05c0.97,0,1.72-0.26,2.25-0.78c0.53-0.52,0.8-1.25,0.8-2.21v-0.17h4.49v0.17
			c0,2.35-0.66,4.17-1.97,5.45c-1.31,1.28-3.17,1.92-5.57,1.92C365.69,742.83,364.29,742.49,363.14,741.83z"/>
		<path class="st6" d="M384.86,716.87h4.68v25.58h-4.68V716.87z M396.39,721.11c0,0-0.07,0-0.21,0s-0.31,0-0.51,0
			c-1.91,0-3.4,0.46-4.47,1.39c-1.08,0.93-1.63,2.21-1.66,3.83l-0.52-5c0.84-1.54,1.91-2.75,3.22-3.61
			c1.31-0.86,2.75-1.29,4.33-1.29v4.68C396.45,721.11,396.39,721.11,396.39,721.11z"/>
		<path class="st6" d="M405.63,706.94h4.68v4.68h-4.68V706.94z M405.63,716.87h4.68v25.58h-4.68V716.87z"/>
		<path class="st6" d="M421.94,741.04c-1.05-1.19-1.58-2.99-1.58-5.39c0-2.88,0.66-5.02,1.97-6.44c1.31-1.42,3.29-2.13,5.94-2.13
			h3.28l0.35,4.19h-3.6c-1.15,0-2.01,0.37-2.59,1.1c-0.58,0.73-0.86,1.83-0.86,3.29c0,1,0.25,1.75,0.75,2.24
			c0.5,0.49,1.25,0.74,2.26,0.74c1.17,0,2.04-0.32,2.61-0.97c0.58-0.65,0.86-1.62,0.86-2.92l0.52,2.37
			c-0.02,1.27-0.22,2.33-0.6,3.18c-0.39,0.85-0.96,1.49-1.73,1.91c-0.76,0.42-1.71,0.63-2.85,0.63
			C424.57,742.83,422.99,742.23,421.94,741.04z M431.33,723.75c0-1.04-0.28-1.84-0.83-2.4c-0.55-0.57-1.32-0.85-2.3-0.85
			c-0.87,0-1.55,0.28-2.03,0.85c-0.49,0.57-0.73,1.37-0.73,2.4h-4.56c0-2.33,0.65-4.14,1.95-5.41c1.3-1.27,3.13-1.91,5.5-1.91
			c1.59,0,2.96,0.29,4.09,0.86s2,1.41,2.59,2.5c0.59,1.09,0.89,2.41,0.89,3.96v18.71h-4.56V723.75z"/>
		<path class="st6" d="M463.84,729.25c-1.17,0.95-1.76,2.3-1.76,4.04c0,1.71,0.46,3.04,1.37,3.98c0.91,0.94,2.2,1.42,3.86,1.42
			c1.53,0,2.83-0.56,3.91-1.69c1.08-1.13,1.9-2.76,2.46-4.9c0.57-2.14,0.85-4.73,0.85-7.75h4.41c0,3.89-0.49,7.22-1.48,9.99
			c-0.99,2.77-2.42,4.88-4.3,6.32c-1.88,1.45-4.15,2.17-6.81,2.17c-1.84,0-3.42-0.37-4.73-1.12c-1.31-0.75-2.32-1.84-3.01-3.27
			c-0.69-1.43-1.04-3.15-1.04-5.15c0-2.73,0.8-4.91,2.42-6.53c1.61-1.63,3.88-2.56,6.83-2.81l2,3.87
			C466.67,727.82,465.01,728.29,463.84,729.25z M465.65,727.64c-1.02-1.58-1.86-3.04-2.53-4.4c-0.67-1.36-1.18-2.74-1.54-4.14
			c-0.36-1.41-0.54-2.87-0.54-4.4c0-2.69,0.66-4.76,1.98-6.21c1.32-1.45,3.22-2.17,5.68-2.17c2.45,0,4.33,0.71,5.64,2.13
			c1.31,1.42,1.97,3.46,1.97,6.13v2.66h-4.66v-2.66c0-1.22-0.25-2.14-0.75-2.79s-1.24-0.96-2.21-0.96c-0.97,0-1.71,0.33-2.23,1
			c-0.52,0.67-0.78,1.62-0.78,2.87c0,1.12,0.14,2.23,0.43,3.35s0.7,2.24,1.25,3.36c0.54,1.13,1.22,2.3,2.04,3.54l11.68,17.5h-5.89
			L465.65,727.64z"/>
		<path class="st6" d="M503.66,742c-0.85-0.6-1.49-1.47-1.93-2.61c-0.44-1.14-0.67-2.52-0.67-4.13v-10.92
			c0-1.66,0.22-3.08,0.67-4.28c0.44-1.19,1.09-2.09,1.93-2.71c0.85-0.62,1.86-0.92,3.04-0.92c1.17,0,2.24,0.39,3.22,1.18
			c0.98,0.79,1.77,1.9,2.38,3.33l-0.52,3.5c0-0.79-0.12-1.47-0.36-2.03c-0.24-0.57-0.58-1-1.04-1.31c-0.45-0.3-1-0.46-1.64-0.46
			c-0.95,0-1.7,0.34-2.23,1.01s-0.8,1.61-0.8,2.81v10.75c0,1.1,0.27,1.96,0.8,2.56c0.53,0.61,1.28,0.91,2.23,0.91
			c0.64,0,1.19-0.14,1.64-0.43c0.45-0.29,0.8-0.71,1.04-1.26c0.24-0.55,0.36-1.21,0.36-1.98l0.34,3.43
			c-0.46,1.41-1.16,2.51-2.11,3.29c-0.95,0.78-2.05,1.17-3.31,1.17C505.52,742.9,504.5,742.6,503.66,742z M503.13,750.95
			c-1.3-1.27-1.95-3.06-1.95-5.36v-0.62h4.66v0.62c0,1,0.26,1.78,0.79,2.33c0.53,0.55,1.26,0.83,2.19,0.83s1.66-0.27,2.18-0.81
			c0.52-0.54,0.78-1.31,0.78-2.29v-28.76h4.66v28.76c0,1.53-0.3,2.83-0.91,3.91c-0.61,1.08-1.5,1.9-2.66,2.46
			c-1.17,0.57-2.57,0.85-4.21,0.85C506.27,752.86,504.42,752.22,503.13,750.95z"/>
		<path class="st6" d="M528.11,741.04c-1.05-1.19-1.58-2.99-1.58-5.39c0-2.88,0.66-5.02,1.97-6.44c1.31-1.42,3.29-2.13,5.94-2.13
			h3.28l0.35,4.19h-3.6c-1.15,0-2.01,0.37-2.59,1.1c-0.58,0.73-0.86,1.83-0.86,3.29c0,1,0.25,1.75,0.75,2.24
			c0.5,0.49,1.25,0.74,2.26,0.74c1.17,0,2.04-0.32,2.61-0.97c0.58-0.65,0.86-1.62,0.86-2.92l0.52,2.37
			c-0.02,1.27-0.22,2.33-0.6,3.18c-0.39,0.85-0.96,1.49-1.73,1.91c-0.76,0.42-1.71,0.63-2.85,0.63
			C530.74,742.83,529.17,742.23,528.11,741.04z M537.5,723.75c0-1.04-0.28-1.84-0.83-2.4c-0.55-0.57-1.32-0.85-2.3-0.85
			c-0.87,0-1.55,0.28-2.03,0.85c-0.49,0.57-0.73,1.37-0.73,2.4h-4.56c0-2.33,0.65-4.14,1.95-5.41c1.3-1.27,3.13-1.91,5.5-1.91
			c1.59,0,2.96,0.29,4.09,0.86s2,1.41,2.59,2.5c0.59,1.09,0.89,2.41,0.89,3.96v18.71h-4.56V723.75z"/>
		<path class="st6" d="M552.53,716.87h4.68v25.58h-4.68V716.87z M563.3,724.71c0-1.31-0.24-2.29-0.73-2.93s-1.22-0.96-2.21-0.96
			c-1.05,0-1.84,0.34-2.37,1.01c-0.53,0.67-0.79,1.68-0.79,3.03l-0.52-3.67c0.58-1.59,1.37-2.79,2.38-3.57
			c1.01-0.79,2.18-1.18,3.51-1.18c1.15,0,2.13,0.26,2.93,0.79c0.8,0.53,1.42,1.3,1.84,2.33c0.42,1.03,0.63,2.28,0.63,3.76v19.15
			h-4.68V724.71z M574.07,724.71c0-1.31-0.26-2.29-0.79-2.93c-0.53-0.64-1.31-0.96-2.37-0.96c-0.99,0-1.72,0.33-2.21,1
			c-0.48,0.67-0.73,1.68-0.73,3.04l-0.67-3.52c0.53-1.63,1.3-2.85,2.33-3.67c1.03-0.82,2.2-1.23,3.51-1.23c1.2,0,2.21,0.27,3.04,0.8
			c0.83,0.53,1.46,1.31,1.9,2.34c0.43,1.03,0.65,2.28,0.65,3.76v19.13h-4.68V724.71z"/>
		<path class="st6" d="M592.32,741.83c-1.16-0.67-2.04-1.63-2.66-2.9c-0.62-1.26-0.92-2.79-0.92-4.58v-8.95
			c0-1.89,0.3-3.51,0.9-4.86c0.6-1.35,1.47-2.37,2.6-3.07s2.5-1.05,4.09-1.05c1.61,0,2.99,0.33,4.14,0.97
			c1.15,0.65,2.03,1.59,2.63,2.83c0.6,1.24,0.9,2.74,0.9,4.5v6.75h-11.98v-3.87h7.49v-2.79c0-1.33-0.28-2.36-0.83-3.08
			c-0.55-0.72-1.34-1.08-2.35-1.08c-0.99,0-1.75,0.39-2.29,1.16c-0.54,0.77-0.81,1.87-0.81,3.3v9.34c0,1.25,0.29,2.22,0.86,2.92
			s1.39,1.05,2.44,1.05c0.97,0,1.72-0.26,2.26-0.78c0.53-0.52,0.8-1.25,0.8-2.21v-0.17h4.49v0.17c0,2.35-0.66,4.17-1.97,5.45
			s-3.17,1.92-5.57,1.92C594.88,742.83,593.48,742.49,592.32,741.83z"/>
		<path class="st6" d="M631.16,735.68c0,0.74,0.16,1.31,0.48,1.72c0.32,0.41,0.79,0.62,1.39,0.62h1.41v4.44h-1.97
			c-1.91,0-3.38-0.59-4.42-1.77c-1.04-1.18-1.57-2.85-1.57-5v-29.06h4.68V735.68z"/>
		<path class="st6" d="M646.11,741.95c-1.11-0.58-1.96-1.43-2.54-2.54c-0.58-1.11-0.88-2.44-0.88-4v-11.68
			c0-1.54,0.29-2.86,0.88-3.96s1.43-1.92,2.54-2.49c1.11-0.57,2.44-0.85,3.98-0.85c1.54,0,2.86,0.28,3.96,0.85
			c1.09,0.57,1.92,1.4,2.49,2.49c0.57,1.09,0.85,2.41,0.85,3.96v11.76c0,1.54-0.28,2.87-0.85,3.97c-0.57,1.1-1.4,1.94-2.49,2.51
			c-1.09,0.58-2.41,0.86-3.96,0.86C648.54,742.83,647.21,742.53,646.11,741.95z M652,737.49c0.47-0.52,0.7-1.25,0.7-2.21v-11.36
			c0-0.92-0.23-1.64-0.7-2.16c-0.47-0.52-1.12-0.78-1.96-0.78c-0.82,0-1.47,0.26-1.95,0.78s-0.71,1.24-0.71,2.16v11.36
			c0,0.94,0.23,1.67,0.7,2.19c0.47,0.53,1.12,0.79,1.96,0.79S651.53,738.01,652,737.49z"/>
		<path class="st6" d="M672.04,735.46c0,0.92,0.25,1.62,0.74,2.09c0.49,0.48,1.22,0.71,2.17,0.71s1.67-0.24,2.14-0.73
			c0.48-0.48,0.71-1.21,0.71-2.18l0.34,3.15c-0.46,1.45-1.11,2.53-1.95,3.24s-1.88,1.07-3.13,1.07c-1.89,0-3.31-0.61-4.28-1.82
			c-0.96-1.22-1.44-3-1.44-5.35v-18.78h4.68V735.46z M677.81,716.87h4.68v25.58h-4.68V716.87z"/>
		<path class="st6" d="M692.96,716.87h4.68v25.58h-4.68V716.87z M703.9,724.71c0-1.31-0.26-2.3-0.78-2.95
			c-0.52-0.65-1.3-0.97-2.35-0.97s-1.84,0.34-2.35,1.01s-0.78,1.69-0.78,3.06l-0.52-3.67c0.58-1.59,1.37-2.79,2.38-3.57
			c1.01-0.79,2.17-1.18,3.49-1.18c1.81,0,3.19,0.59,4.15,1.77c0.96,1.18,1.44,2.89,1.44,5.13v19.13h-4.68V724.71z"/>
		<path class="st6" d="M721.16,742c-0.85-0.6-1.49-1.47-1.93-2.61c-0.44-1.14-0.67-2.52-0.67-4.13v-10.92
			c0-1.66,0.22-3.08,0.67-4.28c0.44-1.19,1.09-2.09,1.93-2.71c0.85-0.62,1.86-0.92,3.04-0.92c1.17,0,2.24,0.39,3.22,1.18
			c0.98,0.79,1.77,1.9,2.38,3.33l-0.52,3.5c0-0.79-0.12-1.47-0.36-2.03c-0.24-0.57-0.58-1-1.04-1.31c-0.45-0.3-1-0.46-1.64-0.46
			c-0.95,0-1.7,0.34-2.23,1.01s-0.8,1.61-0.8,2.81v10.75c0,1.1,0.27,1.96,0.8,2.56c0.53,0.61,1.28,0.91,2.23,0.91
			c0.64,0,1.19-0.14,1.64-0.43c0.45-0.29,0.8-0.71,1.04-1.26c0.24-0.55,0.36-1.21,0.36-1.98l0.34,3.43
			c-0.46,1.41-1.16,2.51-2.11,3.29c-0.95,0.78-2.05,1.17-3.31,1.17C723.02,742.9,722.01,742.6,721.16,742z M720.63,750.95
			c-1.3-1.27-1.95-3.06-1.95-5.36v-0.62h4.66v0.62c0,1,0.26,1.78,0.79,2.33c0.53,0.55,1.26,0.83,2.19,0.83s1.66-0.27,2.18-0.81
			c0.52-0.54,0.78-1.31,0.78-2.29v-28.76h4.66v28.76c0,1.53-0.3,2.83-0.91,3.91c-0.61,1.08-1.5,1.9-2.66,2.46
			c-1.17,0.57-2.57,0.85-4.21,0.85C723.77,752.86,721.93,752.22,720.63,750.95z"/>
		<path class="st6" d="M747.5,741.83c-1.16-0.67-2.04-1.63-2.66-2.9c-0.62-1.26-0.92-2.79-0.92-4.58v-8.95c0-1.89,0.3-3.51,0.9-4.86
			c0.6-1.35,1.47-2.37,2.6-3.07s2.5-1.05,4.09-1.05c1.61,0,2.99,0.33,4.14,0.97c1.15,0.65,2.03,1.59,2.63,2.83
			c0.6,1.24,0.9,2.74,0.9,4.5v6.75H747.2v-3.87h7.49v-2.79c0-1.33-0.28-2.36-0.83-3.08c-0.55-0.72-1.34-1.08-2.35-1.08
			c-0.99,0-1.75,0.39-2.29,1.16c-0.54,0.77-0.81,1.87-0.81,3.3v9.34c0,1.25,0.29,2.22,0.86,2.92s1.39,1.05,2.44,1.05
			c0.97,0,1.72-0.26,2.26-0.78c0.53-0.52,0.8-1.25,0.8-2.21v-0.17h4.49v0.17c0,2.35-0.66,4.17-1.97,5.45s-3.17,1.92-5.57,1.92
			C750.06,742.83,748.66,742.49,747.5,741.83z"/>
	</g>
</g>
<rect x="261.8" y="579.12" class="st7" width="11.21" height="21.49"/>
<rect x="261.97" y="611.04" class="st7" width="11.21" height="11.21"/>
<rect x="270.44" y="574.71" class="st7" width="11.21" height="11.21"/>
</svg>
