<svg id="Camada_1" data-name="Camada 1" xmlns="http://www.w3.org/2000/svg" viewBox="0 0 196.41 135.98"><defs><style>.cls-1{fill:#00f2f2;}.cls-2{fill:none;stroke:#00f2f2;stroke-miterlimit:10;}</style></defs><title>bebidas</title><path class="cls-1" d="M254.22,134.44h6.68V177h-6.68Zm3.69,36.3h9.61a5.88,5.88,0,0,0,4-1.19,4.24,4.24,0,0,0,1.33-3.32v-2.87a6.41,6.41,0,0,0-.56-2.8,3.79,3.79,0,0,0-1.71-1.76,6,6,0,0,0-2.8-.6h-9.87v-6.27h9.81a4.57,4.57,0,0,0,3.43-1.2,4.8,4.8,0,0,0,1.17-3.49V145a4,4,0,0,0-1.23-3.18,5.16,5.16,0,0,0-3.54-1.1h-9.64v-6.3H268a13.61,13.61,0,0,1,6,1.2,8.33,8.33,0,0,1,3.72,3.46,10.94,10.94,0,0,1,1.26,5.42v2.31a8.81,8.81,0,0,1-.82,3.86,7.47,7.47,0,0,1-2.36,2.84,9.13,9.13,0,0,1-3.76,1.54,8.82,8.82,0,0,1,4,1.52,7.79,7.79,0,0,1,2.58,3.08,9.67,9.67,0,0,1,.9,4.24v2.93a10.8,10.8,0,0,1-1.31,5.45,8.69,8.69,0,0,1-3.75,3.52,12.94,12.94,0,0,1-5.87,1.23H257.91Z" transform="translate(-253.72 -41.5)"/><path class="cls-1" d="M286.15,134.44h6.71V177h-6.71Zm3,0h20.3v6.45h-20.3Zm0,18.25h18v6.39h-18Zm0,17.9h20.3V177h-20.3Z" transform="translate(-253.72 -41.5)"/><path class="cls-1" d="M315.42,134.44h6.68V177h-6.68Zm3.69,36.3h9.61a5.88,5.88,0,0,0,4-1.19,4.24,4.24,0,0,0,1.33-3.32v-2.87a6.41,6.41,0,0,0-.56-2.8,3.79,3.79,0,0,0-1.71-1.76,6,6,0,0,0-2.8-.6h-9.87v-6.27h9.81a4.57,4.57,0,0,0,3.43-1.2,4.8,4.8,0,0,0,1.17-3.49V145a4,4,0,0,0-1.23-3.18,5.16,5.16,0,0,0-3.54-1.1h-9.64v-6.3h10.13a13.61,13.61,0,0,1,6,1.2A8.33,8.33,0,0,1,339,139.1a10.94,10.94,0,0,1,1.26,5.42v2.31a8.81,8.81,0,0,1-.82,3.86,7.47,7.47,0,0,1-2.36,2.84,9.13,9.13,0,0,1-3.76,1.54,8.91,8.91,0,0,1,4,1.52,7.85,7.85,0,0,1,2.57,3.08,9.67,9.67,0,0,1,.9,4.24v2.93a10.8,10.8,0,0,1-1.31,5.45,8.69,8.69,0,0,1-3.75,3.52,12.91,12.91,0,0,1-5.87,1.23H319.11Z" transform="translate(-253.72 -41.5)"/><path class="cls-1" d="M353.82,177h-6.76v-42.6h6.76Z" transform="translate(-253.72 -41.5)"/><path class="cls-1" d="M361.27,134.44H368V177h-6.7Zm4.1,36.18h8.26a6.3,6.3,0,0,0,4.53-1.52,5.77,5.77,0,0,0,1.59-4.37v-18a5.77,5.77,0,0,0-1.59-4.37,6.35,6.35,0,0,0-4.53-1.52h-8.26v-6.42h8.32a15.53,15.53,0,0,1,7,1.44,10,10,0,0,1,4.42,4.17,13.44,13.44,0,0,1,1.53,6.64v18.1a13.64,13.64,0,0,1-1.51,6.58,10,10,0,0,1-4.41,4.22,15.54,15.54,0,0,1-7,1.45h-8.29Z" transform="translate(-253.72 -41.5)"/><path class="cls-1" d="M403,134.44h5.09l13,42.6H414l-8.5-31.29L397,177H390ZM397,162.68h17.25V169H397Z" transform="translate(-253.72 -41.5)"/><path class="cls-1" d="M432.93,177.48l-2.68-1.06a10.92,10.92,0,0,1-4.44-3.12,11.88,11.88,0,0,1-2.49-5.08l6.35-2.78a8.07,8.07,0,0,0,2.6,4.16,6.85,6.85,0,0,0,4.41,1.4,7.3,7.3,0,0,0,4.6-1.29,4.38,4.38,0,0,0,1.64-3.66v-1.87a4.28,4.28,0,0,0-.87-2.76,5.52,5.52,0,0,0-2.3-1.67c-1-.39-2.21-.82-3.78-1.29l-.1-.05-.1-.06-.35-.09a33,33,0,0,1-5.73-2,9.69,9.69,0,0,1-3.77-3.38,11,11,0,0,1-1.55-6.2v-1.17a12,12,0,0,1,1.52-6.21,9.75,9.75,0,0,1,4.41-3.92,16.68,16.68,0,0,1,7-1.33,14,14,0,0,1,5.47,1,9.8,9.8,0,0,1,4,3,13.52,13.52,0,0,1,2.37,4.89L443,145.69a8.48,8.48,0,0,0-2.37-3.9,5.32,5.32,0,0,0-3.57-1.31,7.08,7.08,0,0,0-4.47,1.23,4.16,4.16,0,0,0-1.57,3.48v1.35a4.28,4.28,0,0,0,.94,2.87,6.27,6.27,0,0,0,2.36,1.73,35.23,35.23,0,0,0,3.91,1.35l.29.07a1.08,1.08,0,0,1,.29.13l.27.05.23,0a30.89,30.89,0,0,1,5.35,2.13,9.48,9.48,0,0,1,3.51,3.32,10.61,10.61,0,0,1,1.46,5.89V166a11.73,11.73,0,0,1-1.56,6.21,9.8,9.8,0,0,1-4.49,3.92,17.43,17.43,0,0,1-7.14,1.33Z" transform="translate(-253.72 -41.5)"/><path class="cls-2" d="M260.49,131h-6.27V88.44h6.68v36.15m0,0V131h-.41m.41-25.11h6.82a4.57,4.57,0,0,0,3.43-1.2,4.8,4.8,0,0,0,1.17-3.49V99a4,4,0,0,0-1.23-3.18,5.16,5.16,0,0,0-3.54-1.1h-7.06m.69,30h6.34a5.88,5.88,0,0,0,4-1.19,4.24,4.24,0,0,0,1.33-3.32v-2.87a6.41,6.41,0,0,0-.56-2.8,3.79,3.79,0,0,0-1.71-1.76,6,6,0,0,0-2.8-.6H260.9m.28,12.54-1-36.3H268a13.61,13.61,0,0,1,6,1.2,8.33,8.33,0,0,1,3.72,3.46A10.94,10.94,0,0,1,279,98.52v2.31a8.81,8.81,0,0,1-.82,3.86,7.47,7.47,0,0,1-2.36,2.84,9.13,9.13,0,0,1-3.76,1.54,8.82,8.82,0,0,1,4,1.52,7.79,7.79,0,0,1,2.58,3.08,9.67,9.67,0,0,1,.9,4.24v2.93a10.8,10.8,0,0,1-1.31,5.45,8.69,8.69,0,0,1-3.75,3.52,12.94,12.94,0,0,1-5.87,1.23H257.91" transform="translate(-253.72 -41.5)"/><path class="cls-2" d="M286.15,88.44h6.71V131h-6.71Zm6.44,0h16.85v6.45H292.59m0,11.8H307.1v6.39H292.59m0,11.51h16.85V131H292.86" transform="translate(-253.72 -41.5)"/><path class="cls-2" d="M315.42,88.44h6.68V131h-6.68Zm6.29,17.49h7.21a4.57,4.57,0,0,0,3.43-1.2,4.8,4.8,0,0,0,1.17-3.49V99a4,4,0,0,0-1.23-3.18,5.16,5.16,0,0,0-3.54-1.1h-7m-.06,30h7a5.88,5.88,0,0,0,4-1.19,4.24,4.24,0,0,0,1.33-3.32v-2.87a6.41,6.41,0,0,0-.56-2.8,3.79,3.79,0,0,0-1.71-1.76,6,6,0,0,0-2.8-.6h-7.27m.06-23.76h7.47a13.61,13.61,0,0,1,6,1.2A8.33,8.33,0,0,1,339,93.1a10.94,10.94,0,0,1,1.26,5.42v2.31a8.81,8.81,0,0,1-.82,3.86,7.47,7.47,0,0,1-2.36,2.84,9.13,9.13,0,0,1-3.76,1.54,8.91,8.91,0,0,1,4,1.52,7.85,7.85,0,0,1,2.57,3.08,9.67,9.67,0,0,1,.9,4.24v2.93a10.8,10.8,0,0,1-1.31,5.45,8.69,8.69,0,0,1-3.75,3.52,12.91,12.91,0,0,1-5.87,1.23h-8.15" transform="translate(-253.72 -41.5)"/><path class="cls-2" d="M353.82,131h-6.76V88.44h6.76Z" transform="translate(-253.72 -41.5)"/><path class="cls-2" d="M361.27,88.44H368V131h-6.7Zm6.46,36.18h5.9a6.3,6.3,0,0,0,4.53-1.52,5.77,5.77,0,0,0,1.59-4.37v-18a5.77,5.77,0,0,0-1.59-4.37,6.35,6.35,0,0,0-4.53-1.52h-6m-.11-6.42h6.15a15.53,15.53,0,0,1,7,1.44,10,10,0,0,1,4.42,4.17,13.44,13.44,0,0,1,1.53,6.64v18.1a13.64,13.64,0,0,1-1.51,6.58,10,10,0,0,1-4.41,4.22,15.54,15.54,0,0,1-7,1.45h-6" transform="translate(-253.72 -41.5)"/><path class="cls-2" d="M403,88.44h5.09l13,42.6H414l-8.5-31.29L397,131H390ZM412,123H399m1.64-6.33h9.82" transform="translate(-253.72 -41.5)"/><path class="cls-2" d="M432.93,131.48l-2.68-1.06a10.92,10.92,0,0,1-4.44-3.12,11.88,11.88,0,0,1-2.49-5.08l6.35-2.78a8.07,8.07,0,0,0,2.6,4.16,6.85,6.85,0,0,0,4.41,1.4,7.3,7.3,0,0,0,4.6-1.29,4.38,4.38,0,0,0,1.64-3.66v-1.87a4.28,4.28,0,0,0-.87-2.76,5.52,5.52,0,0,0-2.3-1.67c-1-.39-2.21-.82-3.78-1.29a.31.31,0,0,1-.1,0l-.1-.06-.35-.09a33,33,0,0,1-5.73-2.05,9.69,9.69,0,0,1-3.77-3.38,11,11,0,0,1-1.55-6.2V99.46a12,12,0,0,1,1.52-6.21,9.75,9.75,0,0,1,4.41-3.92,16.68,16.68,0,0,1,7-1.33,14,14,0,0,1,5.47,1,9.8,9.8,0,0,1,4,3,13.52,13.52,0,0,1,2.37,4.89L443,99.69a8.48,8.48,0,0,0-2.37-3.9,5.32,5.32,0,0,0-3.57-1.31,7.08,7.08,0,0,0-4.47,1.23A4.16,4.16,0,0,0,431,99.19v1.35a4.28,4.28,0,0,0,.94,2.87,6.27,6.27,0,0,0,2.36,1.73,35.23,35.23,0,0,0,3.91,1.35l.29.07a1.08,1.08,0,0,1,.29.13l.27,0,.23,0a30.89,30.89,0,0,1,5.35,2.13,9.48,9.48,0,0,1,3.51,3.32,10.61,10.61,0,0,1,1.46,5.89V120a11.73,11.73,0,0,1-1.56,6.21,9.8,9.8,0,0,1-4.49,3.92,17.43,17.43,0,0,1-7.14,1.33Z" transform="translate(-253.72 -41.5)"/><path class="cls-2" d="M260.49,85h-6.27V42.44h6.68V78.59m0,0V85h-.41m.41-25.11h6.82a4.57,4.57,0,0,0,3.43-1.2,4.8,4.8,0,0,0,1.17-3.49V53a4,4,0,0,0-1.23-3.18,5.16,5.16,0,0,0-3.54-1.1h-7.06m.69,30h6.34a5.88,5.88,0,0,0,4-1.19,4.24,4.24,0,0,0,1.33-3.32V71.36a6.41,6.41,0,0,0-.56-2.8,3.79,3.79,0,0,0-1.71-1.76,6,6,0,0,0-2.8-.6H260.9m.28,12.54-1-36.3H268a13.61,13.61,0,0,1,6,1.2,8.33,8.33,0,0,1,3.72,3.46A10.94,10.94,0,0,1,279,52.52v2.31a8.81,8.81,0,0,1-.82,3.86,7.47,7.47,0,0,1-2.36,2.84,9.13,9.13,0,0,1-3.76,1.54,8.82,8.82,0,0,1,4,1.52,7.79,7.79,0,0,1,2.58,3.08,9.67,9.67,0,0,1,.9,4.24v2.93a10.8,10.8,0,0,1-1.31,5.45,8.69,8.69,0,0,1-3.75,3.52A12.94,12.94,0,0,1,268.66,85H257.91" transform="translate(-253.72 -41.5)"/><path class="cls-2" d="M286.15,42.44h6.71V85h-6.71Zm6.44,0h16.85v6.45H292.59m0,11.8H307.1v6.39H292.59m0,11.51h16.85V85H292.86" transform="translate(-253.72 -41.5)"/><path class="cls-2" d="M315.42,42.44h6.68V85h-6.68Zm6.29,17.49h7.21a4.57,4.57,0,0,0,3.43-1.2,4.8,4.8,0,0,0,1.17-3.49V53a4,4,0,0,0-1.23-3.18,5.16,5.16,0,0,0-3.54-1.1h-7m-.06,30h7a5.88,5.88,0,0,0,4-1.19,4.24,4.24,0,0,0,1.33-3.32V71.36a6.41,6.41,0,0,0-.56-2.8,3.79,3.79,0,0,0-1.71-1.76,6,6,0,0,0-2.8-.6h-7.27m.06-23.76h7.47a13.61,13.61,0,0,1,6,1.2A8.33,8.33,0,0,1,339,47.1a10.94,10.94,0,0,1,1.26,5.42v2.31a8.81,8.81,0,0,1-.82,3.86,7.47,7.47,0,0,1-2.36,2.84,9.13,9.13,0,0,1-3.76,1.54,8.91,8.91,0,0,1,4,1.52,7.85,7.85,0,0,1,2.57,3.08,9.67,9.67,0,0,1,.9,4.24v2.93a10.8,10.8,0,0,1-1.31,5.45,8.69,8.69,0,0,1-3.75,3.52A12.91,12.91,0,0,1,329.86,85h-8.15" transform="translate(-253.72 -41.5)"/><path class="cls-2" d="M353.82,85h-6.76V42.44h6.76Z" transform="translate(-253.72 -41.5)"/><path class="cls-2" d="M361.27,42.44H368V85h-6.7Zm6.46,36.18h5.9a6.3,6.3,0,0,0,4.53-1.52,5.77,5.77,0,0,0,1.59-4.37v-18a5.77,5.77,0,0,0-1.59-4.37,6.35,6.35,0,0,0-4.53-1.52h-6m-.11-6.42h6.15a15.53,15.53,0,0,1,7,1.44,10,10,0,0,1,4.42,4.17,13.44,13.44,0,0,1,1.53,6.64v18.1a13.64,13.64,0,0,1-1.51,6.58,10,10,0,0,1-4.41,4.22,15.54,15.54,0,0,1-7,1.45h-6" transform="translate(-253.72 -41.5)"/><path class="cls-2" d="M403,42.44h5.09l13,42.6H414l-8.5-31.29L397,85H390ZM412,77H399m1.64-6.33h9.82" transform="translate(-253.72 -41.5)"/><path class="cls-2" d="M432.93,85.48l-2.68-1.06a10.92,10.92,0,0,1-4.44-3.12,11.88,11.88,0,0,1-2.49-5.08l6.35-2.78a8.07,8.07,0,0,0,2.6,4.16,6.85,6.85,0,0,0,4.41,1.4,7.3,7.3,0,0,0,4.6-1.29,4.38,4.38,0,0,0,1.64-3.66V72.18a4.28,4.28,0,0,0-.87-2.76,5.52,5.52,0,0,0-2.3-1.67c-1-.39-2.21-.82-3.78-1.29a.31.31,0,0,1-.1,0l-.1-.06-.35-.09a33,33,0,0,1-5.73-2.05,9.69,9.69,0,0,1-3.77-3.38,11,11,0,0,1-1.55-6.2V53.46a12,12,0,0,1,1.52-6.21,9.75,9.75,0,0,1,4.41-3.92,16.68,16.68,0,0,1,7-1.33,14,14,0,0,1,5.47,1,9.8,9.8,0,0,1,4,3,13.52,13.52,0,0,1,2.37,4.89L443,53.69a8.48,8.48,0,0,0-2.37-3.9,5.32,5.32,0,0,0-3.57-1.31,7.08,7.08,0,0,0-4.47,1.23A4.16,4.16,0,0,0,431,53.19v1.35a4.28,4.28,0,0,0,.94,2.87,6.27,6.27,0,0,0,2.36,1.73,35.23,35.23,0,0,0,3.91,1.35l.29.07a1.08,1.08,0,0,1,.29.13l.27.05.23,0a30.89,30.89,0,0,1,5.35,2.13,9.48,9.48,0,0,1,3.51,3.32,10.61,10.61,0,0,1,1.46,5.89V74a11.73,11.73,0,0,1-1.56,6.21,9.8,9.8,0,0,1-4.49,3.92,17.43,17.43,0,0,1-7.14,1.33Z" transform="translate(-253.72 -41.5)"/></svg>