<?xml version="1.0" encoding="utf-8"?>
<!-- Generator: Adobe Illustrator 23.1.0, SVG Export Plug-In . SVG Version: 6.00 Build 0)  -->
<svg version="1.1" id="Camada_1" xmlns="http://www.w3.org/2000/svg" xmlns:xlink="http://www.w3.org/1999/xlink" x="0px" y="0px"
	 viewBox="0 0 453.7 103.8" style="enable-background:new 0 0 453.7 103.8;" xml:space="preserve">
<style type="text/css">
	.st0{fill:#FF0044;}
	.st1{fill:#FFFFFF;}
	.st2{fill:none;stroke:#FF0044;stroke-miterlimit:10;}
</style>
<title>café</title>
<path class="st0" d="M9.2,102.9l-2.8-1.6C4.5,100.2,3,98.6,2,96.6c-1.1-2.2-1.6-4.7-1.5-7.2V72.8C0.4,70.3,1,67.8,2,65.6
	c1-1.9,2.5-3.6,4.4-4.6c2.1-1.1,4.4-1.7,6.7-1.6c2.3-0.1,4.5,0.4,6.5,1.5c1.8,1.1,3.3,2.6,4.2,4.6c1.1,2.4,1.7,4.9,1.8,7.5h-6.8
	c-0.1-1.3-0.4-2.6-0.9-3.8c-0.4-0.9-1.1-1.8-1.9-2.3c-0.8-0.5-1.8-0.8-2.8-0.8C12,66,11,66.3,10,66.8c-0.9,0.6-1.6,1.4-2,2.3
	c-0.5,1.1-0.7,2.4-0.7,3.6v16.7c0,1.2,0.2,2.5,0.7,3.6c0.4,1,1.1,1.8,2,2.3c0.9,0.5,2,0.8,3.1,0.8c1,0,2-0.2,2.8-0.8
	c0.8-0.6,1.5-1.4,1.9-2.3c0.5-1.2,0.9-2.5,0.9-3.8h6.8c-0.1,2.6-0.7,5.2-1.8,7.5c-0.9,1.9-2.4,3.5-4.2,4.6c-2,1.1-4.2,1.6-6.5,1.5
	L9.2,102.9z"/>
<path class="st0" d="M45.9,59.8H51l13,42.6h-7l-8.5-31.3l-8.5,31.2h-7.1L45.9,59.8z M40,88.1h17.3v6.3H40V88.1z"/>
<path class="st0" d="M73.4,59.8h6.7v42.6h-6.7V59.8z M76.4,59.8h20v6.4h-20V59.8z M76.4,78.5h17.7v6.3H76.5L76.4,78.5z"/>
<path class="st0" d="M106.1,59.8h6.7v42.6h-6.7V59.8z M109.1,59.8h20.3v6.4h-20.3V59.8z M109.1,78.1h18v6.4h-18V78.1z M109.1,96
	h20.3v6.4h-20.3V96z M114.8,53.1l7.7-7.4l4.6,4.7l-8.3,6.7L114.8,53.1z"/>
<path class="st1" d="M160.2,101.3c-1.9-1-3.5-2.6-4.5-4.5c-1.1-2.1-1.7-4.5-1.6-6.9V72.4c-0.1-2.4,0.5-4.8,1.6-6.9
	c1-1.9,2.6-3.5,4.5-4.5c4.3-2.1,9.4-2.1,13.8,0c1.9,1,3.5,2.6,4.5,4.5c1.1,2.1,1.7,4.5,1.6,6.9v17.5c0.1,2.4-0.5,4.8-1.6,6.9
	c-1,1.9-2.6,3.5-4.5,4.5C169.6,103.4,164.5,103.4,160.2,101.3L160.2,101.3z M170.3,95.4c0.9-0.5,1.7-1.3,2.1-2.3
	c0.5-1.1,0.8-2.3,0.7-3.5V72.5c0-1.2-0.2-2.4-0.7-3.4c-0.5-1-1.2-1.7-2.1-2.3c-2.1-1.1-4.5-1.1-6.6,0c-0.9,0.5-1.7,1.3-2.1,2.3
	c-0.5,1.1-0.8,2.2-0.8,3.4v17.3c0,1.2,0.2,2.4,0.8,3.5c0.5,1,1.2,1.7,2.1,2.3C165.8,96.5,168.2,96.5,170.3,95.4z M165.7,92.2
	l3.8-4.6L184,99.1l-3.7,4.7L165.7,92.2z"/>
<path class="st1" d="M198,101.3c-1.9-1-3.4-2.6-4.3-4.5c-1-2.2-1.5-4.6-1.5-7.1V59.8h6.7v30.1c-0.1,1.7,0.4,3.4,1.5,4.7
	c1.1,1.1,2.7,1.7,4.3,1.6c1.6,0.1,3.2-0.5,4.4-1.6c1.1-1.3,1.6-3,1.5-4.7V59.8h6.7v29.9c0.1,2.4-0.4,4.9-1.5,7.1
	c-0.9,1.9-2.4,3.5-4.3,4.5C207.3,103.4,202.3,103.4,198,101.3L198,101.3z"/>
<path class="st1" d="M229.5,59.8h6.7v42.6h-6.7V59.8z M232.5,59.8h20.3v6.4h-20.3L232.5,59.8z M232.5,78.1h18v6.4h-18V78.1z
	 M232.5,96h20.3v6.4h-20.3L232.5,96z"/>
<path class="st1" d="M263.5,59.8h6.4l14.6,31.6l-0.8,0.8V59.8h6.4v42.6h-6.5l-14.5-30.7l0.8-0.8v31.6h-6.4L263.5,59.8z"/>
<path class="st1" d="M298.3,59.8h25.8v6.4h-25.8V59.8z M307.9,63.4h6.6v39h-6.6V63.4z"/>
<path class="st1" d="M338.8,102.4H332V59.8h6.8V102.4z"/>
<path class="st1" d="M351,59.8h6.5l14.6,31.6l-0.8,0.8V59.8h6.4v42.6h-6.5l-14.5-30.7l0.8-0.8v31.6H351V59.8z"/>
<path class="st1" d="M390.3,59.8h6.7v42.6h-6.7V59.8z M393.9,78.2h18.9v6.4h-19L393.9,78.2z M408.9,59.8h6.7v42.6h-6.7V59.8z"/>
<path class="st1" d="M433.8,101.3c-1.9-1-3.5-2.6-4.5-4.5c-1.1-2.1-1.6-4.5-1.6-6.9V72.4c-0.1-2.4,0.5-4.8,1.6-6.9
	c1-1.9,2.6-3.5,4.5-4.5c4.3-2.1,9.4-2.1,13.8,0c1.9,1,3.5,2.6,4.5,4.5c1.1,2.1,1.7,4.5,1.6,6.9v17.5c0.1,2.4-0.5,4.8-1.6,6.9
	c-1,1.9-2.6,3.5-4.5,4.5C443.2,103.4,438.1,103.4,433.8,101.3L433.8,101.3z M444,95.4c0.9-0.5,1.7-1.3,2.1-2.3
	c0.5-1.1,0.8-2.3,0.7-3.5V72.5c0-1.2-0.2-2.4-0.7-3.4c-0.5-1-1.2-1.7-2.1-2.3c-2.1-1.1-4.5-1.1-6.6,0c-0.9,0.5-1.7,1.3-2.2,2.3
	c-0.5,1.1-0.8,2.2-0.8,3.4v17.3c0,1.2,0.2,2.4,0.8,3.5c0.5,1,1.2,1.7,2.1,2.3C439.5,96.5,441.9,96.5,444,95.4L444,95.4z"/>
<path class="st2" d="M9.2,57.9l-2.8-1.6C4.5,55.2,3,53.6,2,51.7c-1.1-2.2-1.6-4.7-1.5-7.2V27.8C0.4,25.3,1,22.8,2,20.6
	c1-1.9,2.5-3.6,4.4-4.6c2.1-1.1,4.4-1.7,6.7-1.6c2.3-0.1,4.5,0.4,6.5,1.5c1.8,1.1,3.3,2.6,4.2,4.6c1.1,2.4,1.7,4.9,1.8,7.5h-6.8
	c-0.1-1.3-0.4-2.6-0.9-3.8c-0.4-0.9-1.1-1.8-1.9-2.3c-0.8-0.5-1.8-0.8-2.8-0.8C12,21,11,21.3,10,21.9c-0.9,0.6-1.6,1.4-2,2.3
	c-0.5,1.1-0.7,2.4-0.7,3.6v16.7c0,1.2,0.2,2.5,0.7,3.6c0.4,1,1.1,1.8,2,2.3c0.9,0.5,2,0.8,3.1,0.8c1,0,2-0.2,2.8-0.8
	c0.8-0.6,1.5-1.4,1.9-2.3c0.5-1.2,0.9-2.5,0.9-3.8h6.8c-0.1,2.6-0.7,5.2-1.8,7.5c-0.9,1.9-2.4,3.5-4.2,4.6c-2,1.1-4.2,1.6-6.5,1.5
	L9.2,57.9z"/>
<path class="st2" d="M45.9,14.8H51l13,42.6h-7l-8.5-31.3l-8.5,31.2h-7.1L45.9,14.8z M43.9,43.1h9.6 M55.1,49.4h-13"/>
<path class="st2" d="M80.1,40.2v17.2h-6.7V14.8h6.7V40.2 M79.7,14.8h16.8v6.4H80.1 M80.1,33.5h14v6.3h-14"/>
<path class="st2" d="M106.1,14.8h6.7v42.6h-6.7V14.8z M112.4,14.8h17v6.5h-16.6 M112.4,33.1H127v6.4h-14.6 M112.4,51h17v6.4h-17
	 M114.8,8l7.7-7.4l4.7,4.7l-8.3,6.7L114.8,8z"/>
</svg>
