<svg id="Camada_1" data-name="Camada 1" xmlns="http://www.w3.org/2000/svg" viewBox="0 0 207.69 133.98"><defs><style>.cls-1{fill:#9201f7;}.cls-2{fill:none;stroke:#9201f7;stroke-miterlimit:10;}</style></defs><title>comidas</title><path class="cls-1" d="M251.48,177.48l-2.84-1.61a10.77,10.77,0,0,1-4.36-4.6,15.79,15.79,0,0,1-1.5-7.15V147.39a15.86,15.86,0,0,1,1.5-7.16,10.76,10.76,0,0,1,4.36-4.62,13.46,13.46,0,0,1,6.73-1.61,13.07,13.07,0,0,1,6.52,1.51,10.28,10.28,0,0,1,4.19,4.56,19.67,19.67,0,0,1,1.8,7.53h-6.82a11.37,11.37,0,0,0-.94-3.84,5.44,5.44,0,0,0-1.93-2.33,5.08,5.08,0,0,0-2.82-.78,5.59,5.59,0,0,0-3.06.82,5.47,5.47,0,0,0-2,2.33,8.58,8.58,0,0,0-.7,3.59v16.73a8.62,8.62,0,0,0,.7,3.6,5.22,5.22,0,0,0,2,2.32,5.76,5.76,0,0,0,3.06.79,5,5,0,0,0,2.83-.78,5.5,5.5,0,0,0,1.92-2.33,11.37,11.37,0,0,0,.94-3.84h6.82a19.66,19.66,0,0,1-1.81,7.53,10.35,10.35,0,0,1-4.22,4.56,13,13,0,0,1-6.48,1.51Z" transform="translate(-242.28 -43.5)"/><path class="cls-1" d="M280,175.9a11,11,0,0,1-4.52-4.53,14.18,14.18,0,0,1-1.6-6.9V147a14.14,14.14,0,0,1,1.6-6.91,11,11,0,0,1,4.52-4.52,15.79,15.79,0,0,1,13.77,0,11,11,0,0,1,4.53,4.52,14.25,14.25,0,0,1,1.6,6.91v17.46a14.29,14.29,0,0,1-1.6,6.9,11,11,0,0,1-4.53,4.53,15.79,15.79,0,0,1-13.77,0Zm10.17-5.83a5.2,5.2,0,0,0,2.14-2.26,7.64,7.64,0,0,0,.73-3.46V147.1a7.57,7.57,0,0,0-.73-3.43,5.2,5.2,0,0,0-2.14-2.26,7.2,7.2,0,0,0-6.56,0,5.3,5.3,0,0,0-2.16,2.26,7.57,7.57,0,0,0-.74,3.43v17.25a7.64,7.64,0,0,0,.74,3.46,5.3,5.3,0,0,0,2.16,2.26,7.2,7.2,0,0,0,6.56,0Z" transform="translate(-242.28 -43.5)"/><path class="cls-1" d="M332.48,134.44h7V177h-6.22V145.31l.41,1.88-8,23.55H321l-8-23,.47-2.46V177h-6.27v-42.6h7.06l9.08,26.66Z" transform="translate(-242.28 -43.5)"/><path class="cls-1" d="M353.66,177H346.9v-42.6h6.76Z" transform="translate(-242.28 -43.5)"/><path class="cls-1" d="M361.11,134.44h6.7V177h-6.7Zm4.1,36.18h8.26A6.3,6.3,0,0,0,378,169.1a5.77,5.77,0,0,0,1.59-4.37v-18a5.77,5.77,0,0,0-1.59-4.37,6.35,6.35,0,0,0-4.53-1.52h-8.26v-6.42h8.32a15.53,15.53,0,0,1,7,1.44,10,10,0,0,1,4.42,4.17,13.44,13.44,0,0,1,1.53,6.64v18.1a13.64,13.64,0,0,1-1.51,6.58,10,10,0,0,1-4.41,4.22,15.54,15.54,0,0,1-7,1.45h-8.29Z" transform="translate(-242.28 -43.5)"/><path class="cls-1" d="M402.79,134.44h5.1l13,42.6h-7.06l-8.5-31.29L396.85,177h-7.06Zm-5.91,28.24h17.25V169H396.88Z" transform="translate(-242.28 -43.5)"/><path class="cls-1" d="M432.77,177.48l-2.69-1.06a11,11,0,0,1-4.43-3.12,11.88,11.88,0,0,1-2.49-5.08l6.35-2.78a8.07,8.07,0,0,0,2.6,4.16,6.85,6.85,0,0,0,4.41,1.4,7.3,7.3,0,0,0,4.6-1.29,4.38,4.38,0,0,0,1.64-3.66v-1.87a4.28,4.28,0,0,0-.87-2.76,5.52,5.52,0,0,0-2.3-1.67c-1-.39-2.21-.82-3.78-1.29l-.1-.05-.1-.06-.35-.09a33,33,0,0,1-5.73-2,9.69,9.69,0,0,1-3.77-3.38,11,11,0,0,1-1.55-6.2v-1.17a12,12,0,0,1,1.52-6.21,9.75,9.75,0,0,1,4.41-3.92,16.68,16.68,0,0,1,7-1.33,14,14,0,0,1,5.47,1,9.8,9.8,0,0,1,4,3,13.52,13.52,0,0,1,2.37,4.89l-6.07,2.81a8.48,8.48,0,0,0-2.37-3.9,5.32,5.32,0,0,0-3.57-1.31,7.08,7.08,0,0,0-4.47,1.23,4.16,4.16,0,0,0-1.57,3.48v1.35a4.28,4.28,0,0,0,.94,2.87,6.27,6.27,0,0,0,2.36,1.73,35.23,35.23,0,0,0,3.91,1.35l.29.07a1.08,1.08,0,0,1,.29.13l.27.05.23,0a30.89,30.89,0,0,1,5.35,2.13,9.48,9.48,0,0,1,3.51,3.32,10.61,10.61,0,0,1,1.45,5.89V166a11.73,11.73,0,0,1-1.55,6.21,9.8,9.8,0,0,1-4.49,3.92,17.43,17.43,0,0,1-7.14,1.33Z" transform="translate(-242.28 -43.5)"/><path class="cls-2" d="M251.48,132.48l-2.84-1.61a10.77,10.77,0,0,1-4.36-4.6,15.79,15.79,0,0,1-1.5-7.15V102.39a15.86,15.86,0,0,1,1.5-7.16,10.76,10.76,0,0,1,4.36-4.62A13.46,13.46,0,0,1,255.37,89a13.07,13.07,0,0,1,6.52,1.51,10.28,10.28,0,0,1,4.19,4.56,19.67,19.67,0,0,1,1.8,7.53h-6.82a11.37,11.37,0,0,0-.94-3.84,5.44,5.44,0,0,0-1.93-2.33,5.08,5.08,0,0,0-2.82-.78,5.59,5.59,0,0,0-3.06.82,5.47,5.47,0,0,0-2,2.33,8.58,8.58,0,0,0-.7,3.59v16.73a8.62,8.62,0,0,0,.7,3.6,5.22,5.22,0,0,0,2,2.32,5.76,5.76,0,0,0,3.06.79,5,5,0,0,0,2.83-.78,5.5,5.5,0,0,0,1.92-2.33,11.37,11.37,0,0,0,.94-3.84h6.82a19.66,19.66,0,0,1-1.81,7.53,10.35,10.35,0,0,1-4.22,4.56,13,13,0,0,1-6.48,1.51Z" transform="translate(-242.28 -43.5)"/><path class="cls-2" d="M280,130.9a11,11,0,0,1-4.52-4.53,14.18,14.18,0,0,1-1.6-6.9V102a14.14,14.14,0,0,1,1.6-6.91A11,11,0,0,1,280,90.58a15.79,15.79,0,0,1,13.77,0,11,11,0,0,1,4.53,4.52,14.25,14.25,0,0,1,1.6,6.91v17.46a14.29,14.29,0,0,1-1.6,6.9,11,11,0,0,1-4.53,4.53,15.79,15.79,0,0,1-13.77,0Zm10.17-5.83a5.2,5.2,0,0,0,2.14-2.26,7.64,7.64,0,0,0,.73-3.46V102.1a7.57,7.57,0,0,0-.73-3.43,5.2,5.2,0,0,0-2.14-2.26,7.2,7.2,0,0,0-6.56,0,5.3,5.3,0,0,0-2.16,2.26,7.57,7.57,0,0,0-.74,3.43v17.25a7.64,7.64,0,0,0,.74,3.46,5.3,5.3,0,0,0,2.16,2.26,7.2,7.2,0,0,0,6.56,0Z" transform="translate(-242.28 -43.5)"/><path class="cls-2" d="M332.48,89.44h7V132h-6.22l.26-31.54h0l-7.87,25.24H321L313.5,99.5h0L313.44,132h-6.27V89.44h7.06l9.08,26.66Z" transform="translate(-242.28 -43.5)"/><path class="cls-2" d="M353.66,132H346.9V89.44h6.76Z" transform="translate(-242.28 -43.5)"/><path class="cls-2" d="M361.11,89.44h6.7V132h-6.7Zm6.2,36.18h6.16A6.3,6.3,0,0,0,378,124.1a5.77,5.77,0,0,0,1.59-4.37v-18A5.77,5.77,0,0,0,378,97.38a6.35,6.35,0,0,0-4.53-1.52h-6.09m.08-6.42h6.07a15.53,15.53,0,0,1,7,1.44,10,10,0,0,1,4.42,4.17,13.44,13.44,0,0,1,1.53,6.64v18.1a13.64,13.64,0,0,1-1.51,6.58,10,10,0,0,1-4.41,4.22,15.54,15.54,0,0,1-7,1.45h-6.19" transform="translate(-242.28 -43.5)"/><path class="cls-2" d="M402.79,89.44h5.1l13,42.6h-7.06l-8.5-31.29L396.85,132h-7.06ZM400.5,117.5l9.84.18m1.32,6.33H398.72" transform="translate(-242.28 -43.5)"/><path class="cls-2" d="M432.77,132.48l-2.69-1.06a11,11,0,0,1-4.43-3.12,11.88,11.88,0,0,1-2.49-5.08l6.35-2.78a8.07,8.07,0,0,0,2.6,4.16,6.85,6.85,0,0,0,4.41,1.4,7.3,7.3,0,0,0,4.6-1.29,4.38,4.38,0,0,0,1.64-3.66v-1.87a4.28,4.28,0,0,0-.87-2.76,5.6,5.6,0,0,0-2.3-1.67c-1-.39-2.21-.82-3.78-1.29a.31.31,0,0,1-.1,0l-.1-.06-.35-.09a33,33,0,0,1-5.73-2.05,9.69,9.69,0,0,1-3.77-3.38,11,11,0,0,1-1.55-6.2v-1.17a12,12,0,0,1,1.52-6.21,9.75,9.75,0,0,1,4.41-3.92,16.68,16.68,0,0,1,7-1.33,14,14,0,0,1,5.47,1,9.8,9.8,0,0,1,4,3,13.52,13.52,0,0,1,2.37,4.89l-6.07,2.81a8.48,8.48,0,0,0-2.37-3.9,5.32,5.32,0,0,0-3.57-1.31,7.08,7.08,0,0,0-4.47,1.23,4.16,4.16,0,0,0-1.57,3.48v1.35a4.28,4.28,0,0,0,.94,2.87,6.27,6.27,0,0,0,2.36,1.73,35.23,35.23,0,0,0,3.91,1.35l.29.07a1.08,1.08,0,0,1,.29.13l.27,0,.23,0a31.71,31.71,0,0,1,5.35,2.13,9.48,9.48,0,0,1,3.51,3.32,10.61,10.61,0,0,1,1.45,5.89V121a11.73,11.73,0,0,1-1.55,6.21,9.8,9.8,0,0,1-4.49,3.92,17.43,17.43,0,0,1-7.14,1.33Z" transform="translate(-242.28 -43.5)"/><path class="cls-2" d="M251.48,87.48l-2.84-1.61a10.77,10.77,0,0,1-4.36-4.6,15.79,15.79,0,0,1-1.5-7.15V57.39a15.86,15.86,0,0,1,1.5-7.16,10.76,10.76,0,0,1,4.36-4.62A13.46,13.46,0,0,1,255.37,44a13.07,13.07,0,0,1,6.52,1.51,10.28,10.28,0,0,1,4.19,4.56,19.67,19.67,0,0,1,1.8,7.53h-6.82a11.37,11.37,0,0,0-.94-3.84,5.44,5.44,0,0,0-1.93-2.33,5.08,5.08,0,0,0-2.82-.78,5.59,5.59,0,0,0-3.06.82,5.47,5.47,0,0,0-2,2.33,8.58,8.58,0,0,0-.7,3.59V74.12a8.62,8.62,0,0,0,.7,3.6,5.22,5.22,0,0,0,2,2.32,5.76,5.76,0,0,0,3.06.79,5,5,0,0,0,2.83-.78,5.5,5.5,0,0,0,1.92-2.33,11.37,11.37,0,0,0,.94-3.84h6.82a19.66,19.66,0,0,1-1.81,7.53A10.35,10.35,0,0,1,261.85,86a13,13,0,0,1-6.48,1.51Z" transform="translate(-242.28 -43.5)"/><path class="cls-2" d="M280,85.9a11,11,0,0,1-4.52-4.53,14.18,14.18,0,0,1-1.6-6.9V57a14.14,14.14,0,0,1,1.6-6.91A11,11,0,0,1,280,45.58a15.79,15.79,0,0,1,13.77,0,11,11,0,0,1,4.53,4.52,14.25,14.25,0,0,1,1.6,6.91V74.47a14.29,14.29,0,0,1-1.6,6.9,11,11,0,0,1-4.53,4.53,15.79,15.79,0,0,1-13.77,0Zm10.17-5.83a5.2,5.2,0,0,0,2.14-2.26,7.64,7.64,0,0,0,.73-3.46V57.1a7.57,7.57,0,0,0-.73-3.43,5.2,5.2,0,0,0-2.14-2.26,7.2,7.2,0,0,0-6.56,0,5.3,5.3,0,0,0-2.16,2.26,7.57,7.57,0,0,0-.74,3.43V74.35a7.64,7.64,0,0,0,.74,3.46,5.3,5.3,0,0,0,2.16,2.26,7.2,7.2,0,0,0,6.56,0Z" transform="translate(-242.28 -43.5)"/><path class="cls-2" d="M332.48,44.44h7V87h-6.22l.26-31.54h0l-7.87,25.24H321L313.5,54.5h0L313.44,87h-6.27V44.44h7.06l9.08,26.66Z" transform="translate(-242.28 -43.5)"/><path class="cls-2" d="M353.66,87H346.9V44.44h6.76Z" transform="translate(-242.28 -43.5)"/><path class="cls-2" d="M361.11,44.44h6.7V87h-6.7Zm6.2,36.18h6.16A6.3,6.3,0,0,0,378,79.1a5.77,5.77,0,0,0,1.59-4.37v-18A5.77,5.77,0,0,0,378,52.38a6.35,6.35,0,0,0-4.53-1.52h-6.09m.08-6.42h6.07a15.53,15.53,0,0,1,7,1.44,10,10,0,0,1,4.42,4.17,13.44,13.44,0,0,1,1.53,6.64v18.1a13.64,13.64,0,0,1-1.51,6.58,10,10,0,0,1-4.41,4.22,15.54,15.54,0,0,1-7,1.45h-6.19" transform="translate(-242.28 -43.5)"/><path class="cls-2" d="M402.79,44.44h5.1l13,42.6h-7.06l-8.5-31.29L396.85,87h-7.06ZM400.5,72.5l9.84.18M411.66,79H398.72" transform="translate(-242.28 -43.5)"/><path class="cls-2" d="M432.77,87.48l-2.69-1.06a11,11,0,0,1-4.43-3.12,11.88,11.88,0,0,1-2.49-5.08l6.35-2.78a8.07,8.07,0,0,0,2.6,4.16,6.85,6.85,0,0,0,4.41,1.4,7.3,7.3,0,0,0,4.6-1.29,4.38,4.38,0,0,0,1.64-3.66V74.18a4.28,4.28,0,0,0-.87-2.76,5.6,5.6,0,0,0-2.3-1.67c-1-.39-2.21-.82-3.78-1.29a.31.31,0,0,1-.1,0l-.1-.06-.35-.09a33,33,0,0,1-5.73-2.05,9.69,9.69,0,0,1-3.77-3.38,11,11,0,0,1-1.55-6.2V55.46a12,12,0,0,1,1.52-6.21,9.75,9.75,0,0,1,4.41-3.92,16.68,16.68,0,0,1,7-1.33,14,14,0,0,1,5.47,1,9.8,9.8,0,0,1,4,3,13.52,13.52,0,0,1,2.37,4.89l-6.07,2.81a8.48,8.48,0,0,0-2.37-3.9,5.32,5.32,0,0,0-3.57-1.31,7.08,7.08,0,0,0-4.47,1.23,4.16,4.16,0,0,0-1.57,3.48v1.35a4.28,4.28,0,0,0,.94,2.87,6.27,6.27,0,0,0,2.36,1.73,35.23,35.23,0,0,0,3.91,1.35l.29.07a1.08,1.08,0,0,1,.29.13l.27.05.23,0a31.71,31.71,0,0,1,5.35,2.13A9.48,9.48,0,0,1,448,68.23a10.61,10.61,0,0,1,1.45,5.89V76a11.73,11.73,0,0,1-1.55,6.21,9.8,9.8,0,0,1-4.49,3.92,17.43,17.43,0,0,1-7.14,1.33Z" transform="translate(-242.28 -43.5)"/></svg>