<?xml version="1.0" encoding="utf-8"?>
<!-- Generator: Adobe Illustrator 23.1.0, SVG Export Plug-In . SVG Version: 6.00 Build 0)  -->
<svg version="1.1" id="Camada_1" xmlns="http://www.w3.org/2000/svg" xmlns:xlink="http://www.w3.org/1999/xlink" x="0px" y="0px"
	 viewBox="0 0 383.4 90" style="enable-background:new 0 0 383.4 90;" xml:space="preserve">
<style type="text/css">
	.st0{fill:#FFFFFF;}
	.st1{fill:#FF0044;}
	.st2{fill:none;stroke:#FF0044;stroke-miterlimit:10;}
</style>
<title>comida</title>
<path class="st0" d="M25.3,0.4h7V43h-6.3V11.3l0.4,1.9l-8,23.5h-4.7l-8-23l0.5-2.5V43H0V0.4h7.1l9.1,26.7L25.3,0.4z"/>
<path class="st0" d="M50.1,41.9c-1.9-1-3.4-2.6-4.3-4.5c-1-2.2-1.6-4.6-1.5-7.1V0.4H51v30.1c-0.1,1.7,0.4,3.4,1.5,4.7
	c1.1,1.1,2.7,1.7,4.3,1.6c1.6,0.1,3.3-0.5,4.4-1.6c1.1-1.3,1.6-3,1.5-4.7V0.4h6.7v29.9c0.1,2.4-0.4,4.9-1.5,7.1
	c-0.9,1.9-2.4,3.5-4.3,4.5C59.5,44,54.4,44,50.1,41.9L50.1,41.9z"/>
<path class="st0" d="M88.1,43h-6.8V0.4h6.8L88.1,43z"/>
<path class="st0" d="M95.9,0.4h25.8v6.4H95.9V0.4z M105.5,4h6.6v39h-6.6V4z"/>
<path class="st0" d="M139.3,0.4h5.1l13,42.6h-7l-8.5-31.3L133.3,43h-7.1L139.3,0.4z M133.3,28.7h17.3V35h-17.3V28.7z"/>
<path class="st1" d="M189.4,43.5l-2.9-1.6c-1.9-1.1-3.4-2.7-4.4-4.6c-1.1-2.2-1.6-4.7-1.5-7.2V13.4c-0.1-2.5,0.5-4.9,1.5-7.2
	c1-1.9,2.5-3.6,4.4-4.6c2.1-1.1,4.4-1.7,6.8-1.6c2.3-0.1,4.5,0.4,6.5,1.5c1.8,1.1,3.3,2.6,4.2,4.6c1.1,2.4,1.7,4.9,1.8,7.5H199
	c-0.1-1.3-0.4-2.6-0.9-3.8c-0.4-0.9-1.1-1.8-1.9-2.3c-0.8-0.5-1.8-0.8-2.8-0.8c-1.1,0-2.1,0.3-3.1,0.8c-0.9,0.6-1.6,1.4-2,2.3
	c-0.5,1.1-0.7,2.4-0.7,3.6v16.7c0,1.2,0.2,2.5,0.7,3.6c0.4,1,1.1,1.8,2,2.3c0.9,0.5,2,0.8,3.1,0.8c1,0,2-0.2,2.8-0.8
	c0.8-0.6,1.5-1.4,1.9-2.3c0.5-1.2,0.9-2.5,0.9-3.8h6.8c-0.1,2.6-0.7,5.2-1.8,7.5c-0.9,1.9-2.4,3.5-4.2,4.6c-2,1.1-4.2,1.6-6.5,1.5
	H189.4z"/>
<path class="st1" d="M222.7,41.9c-1.9-1-3.5-2.6-4.5-4.5c-1.1-2.1-1.6-4.5-1.6-6.9V13c-0.1-2.4,0.5-4.8,1.6-6.9
	c1-1.9,2.6-3.5,4.5-4.5c4.3-2.1,9.4-2.1,13.8,0c1.9,1,3.5,2.6,4.5,4.5c1.1,2.1,1.7,4.5,1.6,6.9v17.5c0.1,2.4-0.5,4.8-1.6,6.9
	c-1,1.9-2.6,3.5-4.5,4.5C232.1,44,227.1,44,222.7,41.9L222.7,41.9z M232.9,36.1c0.9-0.5,1.7-1.3,2.1-2.3c0.5-1.1,0.8-2.3,0.7-3.5
	V13.1c0-1.2-0.2-2.4-0.7-3.4c-0.5-1-1.2-1.7-2.1-2.3c-2.1-1.1-4.5-1.1-6.6,0c-0.9,0.5-1.7,1.3-2.1,2.3c-0.5,1.1-0.8,2.2-0.8,3.4
	v17.3c0,1.2,0.2,2.4,0.8,3.5c0.5,1,1.2,1.7,2.1,2.3C228.4,37.1,230.8,37.1,232.9,36.1z"/>
<path class="st1" d="M280,0.4h7V43h-6.2V11.3l0.4,1.9l-8,23.5h-4.7l-8-23l0.5-2.5V43h-6.3V0.4h7.1l9.1,26.7L280,0.4z"/>
<path class="st1" d="M306,43h-6.8V0.4h6.8V43z"/>
<path class="st1" d="M318.2,0.4h6.7V43h-6.7V0.4z M322.3,36.6h8.3c1.6,0.1,3.3-0.4,4.5-1.5c1.1-1.2,1.7-2.8,1.6-4.4v-18
	c0.1-1.6-0.5-3.2-1.6-4.4c-1.2-1.1-2.9-1.6-4.5-1.5h-8.3V0.4h8.3c2.4-0.1,4.8,0.4,7,1.4c1.9,0.9,3.4,2.4,4.4,4.2
	c1.1,2,1.6,4.3,1.5,6.6v18.1c0.1,2.3-0.5,4.5-1.5,6.6c-1,1.8-2.5,3.3-4.4,4.2c-2.2,1-4.6,1.5-7,1.4h-8.4V36.6z"/>
<path class="st1" d="M364.7,0.4h5.1l13,42.6h-7.1l-8.5-31.3L358.8,43h-7.1L364.7,0.4z M358.8,28.7h17.3V35h-17.3V28.7z"/>
<path class="st2" d="M189.3,89.5l-2.8-1.6c-1.9-1.1-3.4-2.7-4.4-4.6c-1.1-2.2-1.6-4.7-1.5-7.1V59.4c-0.1-2.5,0.5-4.9,1.5-7.2
	c1-1.9,2.5-3.6,4.4-4.6c2.1-1.1,4.4-1.7,6.7-1.6c2.3-0.1,4.5,0.4,6.5,1.5c1.8,1.1,3.3,2.6,4.2,4.6c1.1,2.4,1.7,4.9,1.8,7.5h-6.8
	c-0.1-1.3-0.4-2.6-0.9-3.8c-0.4-0.9-1.1-1.8-1.9-2.3c-0.8-0.5-1.8-0.8-2.8-0.8c-1.1,0-2.1,0.3-3.1,0.8c-0.9,0.6-1.6,1.4-2,2.3
	c-0.5,1.1-0.7,2.4-0.7,3.6v16.7c0,1.2,0.2,2.5,0.7,3.6c0.4,1,1.1,1.8,2,2.3c0.9,0.5,2,0.8,3.1,0.8c1,0,2-0.2,2.8-0.8
	c0.8-0.6,1.5-1.4,1.9-2.3c0.5-1.2,0.9-2.5,0.9-3.8h6.8c-0.1,2.6-0.7,5.2-1.8,7.5c-0.9,1.9-2.4,3.5-4.2,4.6c-2,1.1-4.2,1.6-6.5,1.5
	L189.3,89.5z"/>
<path class="st2" d="M222.6,87.9c-1.9-1-3.5-2.6-4.5-4.5c-1.1-2.1-1.7-4.5-1.6-6.9V59c-0.1-2.4,0.5-4.8,1.6-6.9
	c1-1.9,2.6-3.5,4.5-4.5c4.3-2.1,9.4-2.1,13.8,0c1.9,1,3.5,2.6,4.5,4.5c1.1,2.1,1.7,4.5,1.6,6.9v17.5c0.1,2.4-0.5,4.8-1.6,6.9
	c-1,1.9-2.6,3.5-4.5,4.5C232,90,226.9,90,222.6,87.9L222.6,87.9z M232.7,82.1c0.9-0.5,1.7-1.3,2.1-2.3c0.5-1.1,0.8-2.3,0.7-3.5V59.1
	c0-1.2-0.2-2.4-0.7-3.4c-0.5-1-1.2-1.7-2.1-2.3c-2.1-1.1-4.5-1.1-6.6,0c-0.9,0.5-1.7,1.3-2.1,2.3c-0.5,1.1-0.8,2.2-0.8,3.4v17.3
	c0,1.2,0.2,2.4,0.8,3.5c0.5,1,1.2,1.7,2.1,2.3C228.2,83.1,230.7,83.1,232.7,82.1L232.7,82.1z"/>
<path class="st2" d="M279.9,46.4h7V89h-6.2l0.2-31.5l0,0L273,82.7h-4.6l-7.5-25.2l0,0V89h-6.3V46.4h7.1l9.1,26.7L279.9,46.4z"/>
<path class="st2" d="M305.8,89h-6.8V46.4h6.8V89z"/>
<path class="st2" d="M318.1,46.4h6.7V89h-6.7V46.4z M324.8,82.6h5.6c1.7,0.1,3.3-0.4,4.5-1.5c1.1-1.2,1.7-2.8,1.6-4.4v-18
	c0.1-1.6-0.5-3.2-1.6-4.4c-1.3-1.1-2.9-1.6-4.5-1.5H325 M325.1,46.4h5.4c2.4-0.1,4.8,0.4,7,1.4c1.9,0.9,3.4,2.4,4.4,4.2
	c1.1,2,1.6,4.3,1.5,6.6v18.1c0.1,2.3-0.5,4.5-1.5,6.6c-1,1.8-2.5,3.3-4.4,4.2c-2.2,1-4.6,1.5-7,1.4h-6.1"/>
<path class="st2" d="M364.6,46.4h5.1l13,42.6h-7.1l-8.5-31.3L358.6,89h-7.1L364.6,46.4z M373.4,81h-12.6 M362.3,74.7h9.6"/>
</svg>
