<?xml version="1.0" encoding="utf-8"?>
<!-- Generator: Adobe Illustrator 23.1.0, SVG Export Plug-In . SVG Version: 6.00 Build 0)  -->
<svg version="1.1" id="Camada_1" xmlns="http://www.w3.org/2000/svg" xmlns:xlink="http://www.w3.org/1999/xlink" x="0px" y="0px"
	 viewBox="0 0 701 200" style="enable-background:new 0 0 701 200;" xml:space="preserve">
<style type="text/css">
	.st0{fill:#FF0044;}
	.st1{fill:none;stroke:#FF0044;stroke-width:2;stroke-miterlimit:10;}
	.st2{fill:#FFFFFF;}
</style>
<g>
	<g>
		<path class="st0" d="M137.1,137.58h8.05v51.12h-8.05V137.58z M140.72,137.58h24.01v7.7h-24.01V137.58z M140.72,159.98h21.2v7.59
			h-21.2V159.98z"/>
		<path class="st0" d="M182.42,137.58h6.12l15.61,51.12h-8.47l-10.2-37.55l-10.2,37.55h-8.47L182.42,137.58z M175.31,171.47h20.71
			v7.59h-20.71V171.47z"/>
		<path class="st0" d="M209.73,137.58h8.05v51.12h-8.05V137.58z M213.49,181h23.84v7.7h-23.84V181z"/>
		<path class="st0" d="M243.62,137.58h8.05v51.12h-8.05V137.58z M247.21,137.58h24.36v7.73h-24.36V137.58z M247.21,159.49h21.55
			v7.66h-21.55V159.49z M247.21,180.97h24.36v7.73h-24.36V180.97z"/>
		<path class="st0" d="M300.08,189.23c0,0-1.14-0.64-3.41-1.93c-2.27-1.29-4.01-3.13-5.22-5.52s-1.81-5.25-1.81-8.58v-20.07
			c0-3.33,0.6-6.19,1.81-8.6c1.21-2.4,2.95-4.25,5.22-5.54c2.27-1.29,4.97-1.93,8.09-1.93c3.07,0,5.68,0.6,7.82,1.81
			c2.14,1.21,3.82,3.03,5.03,5.47c1.21,2.44,1.93,5.45,2.16,9.04h-8.19c-0.16-1.83-0.54-3.36-1.13-4.61
			c-0.59-1.24-1.36-2.17-2.32-2.79c-0.96-0.62-2.09-0.93-3.38-0.93c-1.43,0-2.65,0.33-3.67,0.98c-1.02,0.66-1.81,1.59-2.37,2.79
			c-0.56,1.21-0.84,2.64-0.84,4.31v20.07c0,1.67,0.28,3.11,0.84,4.32c0.56,1.22,1.35,2.14,2.37,2.78s2.24,0.95,3.67,0.95
			c1.31,0,2.44-0.31,3.39-0.93c0.95-0.62,1.72-1.55,2.3-2.79c0.59-1.24,0.96-2.78,1.13-4.61h8.19c-0.23,3.59-0.96,6.6-2.18,9.04
			c-1.22,2.44-2.91,4.26-5.06,5.47c-2.16,1.21-4.75,1.81-7.77,1.81C301.64,189.23,300.08,189.23,300.08,189.23z"/>
		<path class="st0" d="M334.29,187.33c-2.34-1.27-4.15-3.08-5.43-5.43s-1.92-5.12-1.92-8.28v-20.95c0-3.19,0.64-5.95,1.92-8.3
			c1.28-2.34,3.09-4.15,5.43-5.41s5.1-1.9,8.26-1.9s5.92,0.63,8.26,1.9s4.15,3.07,5.43,5.41c1.28,2.34,1.92,5.11,1.92,8.3v20.95
			c0,3.16-0.64,5.92-1.92,8.28s-3.09,4.17-5.43,5.43s-5.1,1.9-8.26,1.9S336.63,188.6,334.29,187.33z M346.49,180.33
			c1.13-0.63,1.98-1.53,2.57-2.71c0.59-1.17,0.88-2.55,0.88-4.15v-20.71c0-1.57-0.29-2.94-0.88-4.11c-0.59-1.17-1.44-2.07-2.57-2.71
			s-2.44-0.95-3.94-0.95s-2.81,0.32-3.94,0.95s-1.99,1.54-2.58,2.71c-0.6,1.17-0.9,2.54-0.9,4.11v20.71c0,1.59,0.3,2.98,0.9,4.15
			c0.6,1.17,1.46,2.07,2.58,2.71s2.44,0.95,3.94,0.95S345.37,180.97,346.49,180.33z"/>
		<path class="st0" d="M366.92,137.58h7.73l17.54,37.97l-0.95,1.02v-38.99h7.66v51.08h-7.84l-17.4-36.88l0.91-1.02v37.9h-7.66
			V137.58z"/>
		<path class="st0" d="M415.01,187.33c-2.34-1.27-4.15-3.08-5.43-5.43s-1.92-5.12-1.92-8.28v-20.95c0-3.19,0.64-5.95,1.92-8.3
			c1.28-2.34,3.09-4.15,5.43-5.41s5.1-1.9,8.26-1.9s5.92,0.63,8.26,1.9s4.15,3.07,5.43,5.41c1.28,2.34,1.92,5.11,1.92,8.3v20.95
			c0,3.16-0.64,5.92-1.92,8.28s-3.09,4.17-5.43,5.43s-5.1,1.9-8.26,1.9S417.35,188.6,415.01,187.33z M427.21,180.33
			c1.13-0.63,1.98-1.53,2.57-2.71c0.59-1.17,0.88-2.55,0.88-4.15v-20.71c0-1.57-0.29-2.94-0.88-4.11c-0.59-1.17-1.44-2.07-2.57-2.71
			s-2.44-0.95-3.94-0.95s-2.81,0.32-3.94,0.95s-1.99,1.54-2.58,2.71c-0.6,1.17-0.9,2.54-0.9,4.11v20.71c0,1.59,0.3,2.98,0.9,4.15
			c0.6,1.17,1.46,2.07,2.58,2.71s2.44,0.95,3.94,0.95S426.08,180.97,427.21,180.33z"/>
		<path class="st0" d="M457.34,189.23c0,0-1.07-0.42-3.22-1.27s-3.92-2.09-5.33-3.74s-2.4-3.69-2.99-6.1l7.63-3.34
			c0.66,2.2,1.69,3.87,3.11,4.99s3.18,1.69,5.29,1.69c2.37,0,4.21-0.51,5.52-1.55c1.31-1.03,1.97-2.5,1.97-4.39v-2.25
			c0-1.34-0.35-2.44-1.04-3.3c-0.69-0.87-1.61-1.53-2.76-2c-1.15-0.47-2.66-0.98-4.54-1.55c-0.05-0.02-0.09-0.05-0.12-0.07
			c-0.04-0.02-0.08-0.05-0.12-0.07l-0.42-0.11c-2.81-0.77-5.1-1.59-6.87-2.46c-1.77-0.87-3.28-2.22-4.52-4.06
			c-1.24-1.84-1.86-4.32-1.86-7.44v-1.41c0-2.91,0.61-5.39,1.83-7.45c1.22-2.06,2.98-3.63,5.29-4.69c2.31-1.07,5.09-1.6,8.35-1.6
			c2.46,0,4.65,0.4,6.56,1.2c1.91,0.8,3.5,1.99,4.76,3.59c1.27,1.59,2.21,3.55,2.85,5.87l-7.28,3.38c-0.68-2.06-1.63-3.62-2.85-4.68
			s-2.65-1.58-4.29-1.58c-2.32,0-4.11,0.49-5.36,1.48s-1.88,2.38-1.88,4.18v1.62c0,1.41,0.38,2.55,1.13,3.45
			c0.75,0.89,1.69,1.58,2.83,2.07s2.7,1.03,4.69,1.62c0.12,0.02,0.23,0.05,0.35,0.09s0.23,0.09,0.35,0.16
			c0.12,0.02,0.22,0.04,0.32,0.05c0.09,0.01,0.19,0.03,0.28,0.05c2.63,0.82,4.76,1.67,6.42,2.55s3.06,2.21,4.22,3.99
			c1.16,1.78,1.74,4.14,1.74,7.07v2.29c0,2.91-0.62,5.39-1.86,7.45c-1.24,2.06-3.04,3.63-5.4,4.69c-2.36,1.07-5.21,1.6-8.56,1.6
			C458.74,189.23,457.34,189.23,457.34,189.23z"/>
		<path class="st0" d="M495.24,189.23c0,0-1.14-0.64-3.41-1.93c-2.27-1.29-4.01-3.13-5.22-5.52s-1.81-5.25-1.81-8.58v-20.07
			c0-3.33,0.6-6.19,1.81-8.6c1.21-2.4,2.95-4.25,5.22-5.54c2.27-1.29,4.97-1.93,8.09-1.93c3.07,0,5.68,0.6,7.82,1.81
			c2.14,1.21,3.82,3.03,5.03,5.47c1.21,2.44,1.93,5.45,2.16,9.04h-8.19c-0.16-1.83-0.54-3.36-1.13-4.61
			c-0.59-1.24-1.36-2.17-2.32-2.79c-0.96-0.62-2.09-0.93-3.38-0.93c-1.43,0-2.65,0.33-3.67,0.98c-1.02,0.66-1.81,1.59-2.37,2.79
			c-0.56,1.21-0.84,2.64-0.84,4.31v20.07c0,1.67,0.28,3.11,0.84,4.32c0.56,1.22,1.35,2.14,2.37,2.78s2.24,0.95,3.67,0.95
			c1.31,0,2.44-0.31,3.39-0.93c0.95-0.62,1.72-1.55,2.3-2.79c0.59-1.24,0.96-2.78,1.13-4.61h8.19c-0.23,3.59-0.96,6.6-2.18,9.04
			c-1.22,2.44-2.91,4.26-5.06,5.47c-2.16,1.21-4.75,1.81-7.77,1.81C496.79,189.23,495.24,189.23,495.24,189.23z"/>
		<path class="st0" d="M529.44,187.33c-2.34-1.27-4.15-3.08-5.43-5.43s-1.92-5.12-1.92-8.28v-20.95c0-3.19,0.64-5.95,1.92-8.3
			c1.28-2.34,3.09-4.15,5.43-5.41s5.1-1.9,8.26-1.9s5.92,0.63,8.26,1.9s4.15,3.07,5.43,5.41c1.28,2.34,1.92,5.11,1.92,8.3v20.95
			c0,3.16-0.64,5.92-1.92,8.28s-3.09,4.17-5.43,5.43s-5.1,1.9-8.26,1.9S531.79,188.6,529.44,187.33z M541.64,180.33
			c1.13-0.63,1.98-1.53,2.57-2.71c0.59-1.17,0.88-2.55,0.88-4.15v-20.71c0-1.57-0.29-2.94-0.88-4.11c-0.59-1.17-1.44-2.07-2.57-2.71
			s-2.44-0.95-3.94-0.95s-2.81,0.32-3.94,0.95s-1.99,1.54-2.58,2.71c-0.6,1.17-0.9,2.54-0.9,4.11v20.71c0,1.59,0.3,2.98,0.9,4.15
			c0.6,1.17,1.46,2.07,2.58,2.71s2.44,0.95,3.94,0.95S540.52,180.97,541.64,180.33z"/>
	</g>
</g>
<g>
	<path class="st1" d="M137.1,82.58h8.05v51.12h-8.05V82.58z M144.49,82.58h20.24v7.7h-20.18 M144.83,104.98h17.09v7.59h-17.09"/>
	<path class="st1" d="M181.01,82.58h6.12l15.61,51.12h-8.47l-10.2-37.55l-10.2,37.55h-8.47L181.01,82.58z M192.07,124.07h-16.45
		 M178.03,116.48h12.04"/>
	<path class="st1" d="M208.33,82.58h8.05v51.12h-8.05V82.58z M215.92,126h20.01v7.7h-19.89"/>
	<path class="st1" d="M242.22,82.58h8.05v51.12h-8.05V82.58z M249.62,82.58h20.54v7.73h-20.6 M249.85,104.49h17.5v7.66h-17.79
		 M249.85,125.97h20.31v7.73h-20.2"/>
	<path class="st1" d="M298.68,134.23c0,0-1.14-0.64-3.41-1.93c-2.27-1.29-4.01-3.13-5.22-5.52s-1.81-5.25-1.81-8.58V98.12
		c0-3.33,0.6-6.19,1.81-8.6c1.21-2.4,2.95-4.25,5.22-5.54c2.27-1.29,4.97-1.93,8.09-1.93c3.07,0,5.68,0.6,7.82,1.81
		c2.14,1.21,3.82,3.03,5.03,5.47c1.21,2.44,1.93,5.45,2.16,9.04h-8.19c-0.16-1.83-0.54-3.36-1.13-4.61
		c-0.59-1.24-1.36-2.17-2.32-2.79c-0.96-0.62-2.09-0.93-3.38-0.93c-1.43,0-2.65,0.33-3.67,0.98c-1.02,0.66-1.81,1.59-2.37,2.79
		c-0.56,1.21-0.84,2.64-0.84,4.31v20.07c0,1.66,0.28,3.11,0.84,4.32c0.56,1.22,1.35,2.14,2.37,2.78s2.24,0.95,3.67,0.95
		c1.31,0,2.44-0.31,3.39-0.93c0.95-0.62,1.72-1.55,2.3-2.79c0.59-1.24,0.96-2.78,1.13-4.61h8.19c-0.23,3.59-0.96,6.6-2.18,9.04
		c-1.22,2.44-2.91,4.26-5.06,5.47c-2.16,1.21-4.75,1.81-7.77,1.81C300.24,134.23,298.68,134.23,298.68,134.23z"/>
	<path class="st1" d="M332.88,132.33c-2.34-1.27-4.15-3.08-5.43-5.43s-1.92-5.12-1.92-8.28V97.67c0-3.19,0.64-5.95,1.92-8.3
		c1.28-2.34,3.09-4.15,5.43-5.41s5.1-1.9,8.26-1.9s5.92,0.63,8.26,1.9s4.15,3.07,5.43,5.41c1.28,2.34,1.92,5.11,1.92,8.3v20.95
		c0,3.16-0.64,5.92-1.92,8.28s-3.09,4.17-5.43,5.43s-5.1,1.9-8.26,1.9S335.23,133.6,332.88,132.33z M345.08,125.33
		c1.13-0.63,1.98-1.53,2.57-2.71c0.59-1.17,0.88-2.55,0.88-4.15V97.77c0-1.57-0.29-2.94-0.88-4.11c-0.59-1.17-1.44-2.07-2.57-2.71
		S342.65,90,341.15,90s-2.81,0.32-3.94,0.95s-1.99,1.54-2.58,2.71c-0.6,1.17-0.9,2.54-0.9,4.11v20.71c0,1.59,0.3,2.98,0.9,4.15
		c0.6,1.17,1.46,2.07,2.58,2.71s2.44,0.95,3.94,0.95S343.96,125.97,345.08,125.33z"/>
	<path class="st1" d="M365.51,82.58h7.73L392,123l0,0l-2.16-40.42h7.66v51.08h-7.84L372,95l0,0l1.17,38.67h-7.66V82.58z"/>
	<path class="st1" d="M413.6,132.33c-2.34-1.27-4.15-3.08-5.43-5.43s-1.92-5.12-1.92-8.28V97.67c0-3.19,0.64-5.95,1.92-8.3
		c1.28-2.34,3.09-4.15,5.43-5.41s5.1-1.9,8.26-1.9s5.92,0.63,8.26,1.9s4.15,3.07,5.43,5.41c1.28,2.34,1.92,5.11,1.92,8.3v20.95
		c0,3.16-0.64,5.92-1.92,8.28s-3.09,4.17-5.43,5.43s-5.1,1.9-8.26,1.9S415.95,133.6,413.6,132.33z M425.8,125.33
		c1.13-0.63,1.98-1.53,2.57-2.71c0.59-1.17,0.88-2.55,0.88-4.15V97.77c0-1.57-0.29-2.94-0.88-4.11c-0.59-1.17-1.44-2.07-2.57-2.71
		S423.37,90,421.87,90s-2.81,0.32-3.94,0.95s-1.99,1.54-2.58,2.71c-0.6,1.17-0.9,2.54-0.9,4.11v20.71c0,1.59,0.3,2.98,0.9,4.15
		c0.6,1.17,1.46,2.07,2.58,2.71s2.44,0.95,3.94,0.95S424.68,125.97,425.8,125.33z"/>
	<path class="st1" d="M455.93,134.23c0,0-1.07-0.42-3.22-1.27s-3.92-2.09-5.33-3.74s-2.4-3.69-2.99-6.1l7.63-3.34
		c0.66,2.2,1.69,3.87,3.11,4.99s3.18,1.69,5.29,1.69c2.37,0,4.21-0.52,5.52-1.55c1.31-1.03,1.97-2.5,1.97-4.39v-2.25
		c0-1.34-0.35-2.44-1.04-3.3c-0.69-0.87-1.61-1.53-2.76-2c-1.15-0.47-2.66-0.98-4.54-1.55c-0.05-0.02-0.09-0.05-0.12-0.07
		c-0.04-0.02-0.08-0.05-0.12-0.07l-0.42-0.11c-2.81-0.77-5.1-1.59-6.87-2.46c-1.77-0.87-3.28-2.22-4.52-4.06
		c-1.24-1.84-1.86-4.32-1.86-7.44V95.8c0-2.91,0.61-5.39,1.83-7.45c1.22-2.06,2.98-3.63,5.29-4.69c2.31-1.07,5.09-1.6,8.35-1.6
		c2.46,0,4.65,0.4,6.56,1.2c1.91,0.8,3.5,1.99,4.76,3.59c1.27,1.59,2.21,3.55,2.85,5.87l-7.28,3.38c-0.68-2.06-1.63-3.62-2.85-4.68
		s-2.65-1.58-4.29-1.58c-2.32,0-4.11,0.49-5.36,1.48s-1.88,2.38-1.88,4.18v1.62c0,1.41,0.38,2.55,1.13,3.45
		c0.75,0.89,1.69,1.58,2.83,2.07s2.7,1.03,4.69,1.62c0.12,0.02,0.23,0.05,0.35,0.09s0.23,0.09,0.35,0.16
		c0.12,0.02,0.22,0.04,0.32,0.05c0.09,0.01,0.19,0.03,0.28,0.05c2.63,0.82,4.76,1.67,6.42,2.55s3.06,2.21,4.22,3.99
		c1.16,1.78,1.74,4.14,1.74,7.07v2.29c0,2.91-0.62,5.39-1.86,7.45c-1.24,2.06-3.04,3.63-5.4,4.69c-2.36,1.07-5.21,1.6-8.56,1.6
		C457.34,134.23,455.93,134.23,455.93,134.23z"/>
	<path class="st1" d="M493.83,134.23c0,0-1.14-0.64-3.41-1.93c-2.27-1.29-4.01-3.13-5.22-5.52s-1.81-5.25-1.81-8.58V98.12
		c0-3.33,0.6-6.19,1.81-8.6c1.21-2.4,2.95-4.25,5.22-5.54c2.27-1.29,4.97-1.93,8.09-1.93c3.07,0,5.68,0.6,7.82,1.81
		c2.14,1.21,3.82,3.03,5.03,5.47c1.21,2.44,1.93,5.45,2.16,9.04h-8.19c-0.16-1.83-0.54-3.36-1.13-4.61
		c-0.59-1.24-1.36-2.17-2.32-2.79c-0.96-0.62-2.09-0.93-3.38-0.93c-1.43,0-2.65,0.33-3.67,0.98c-1.02,0.66-1.81,1.59-2.37,2.79
		c-0.56,1.21-0.84,2.64-0.84,4.31v20.07c0,1.66,0.28,3.11,0.84,4.32c0.56,1.22,1.35,2.14,2.37,2.78s2.24,0.95,3.67,0.95
		c1.31,0,2.44-0.31,3.39-0.93c0.95-0.62,1.72-1.55,2.3-2.79c0.59-1.24,0.96-2.78,1.13-4.61h8.19c-0.23,3.59-0.96,6.6-2.18,9.04
		c-1.22,2.44-2.91,4.26-5.06,5.47c-2.16,1.21-4.75,1.81-7.77,1.81C495.39,134.23,493.83,134.23,493.83,134.23z"/>
	<path class="st1" d="M528.04,132.33c-2.34-1.27-4.15-3.08-5.43-5.43s-1.92-5.12-1.92-8.28V97.67c0-3.19,0.64-5.95,1.92-8.3
		c1.28-2.34,3.09-4.15,5.43-5.41s5.1-1.9,8.26-1.9s5.92,0.63,8.26,1.9s4.15,3.07,5.43,5.41c1.28,2.34,1.92,5.11,1.92,8.3v20.95
		c0,3.16-0.64,5.92-1.92,8.28s-3.09,4.17-5.43,5.43s-5.1,1.9-8.26,1.9S530.38,133.6,528.04,132.33z M540.24,125.33
		c1.13-0.63,1.98-1.53,2.57-2.71c0.59-1.17,0.88-2.55,0.88-4.15V97.77c0-1.57-0.29-2.94-0.88-4.11c-0.59-1.17-1.44-2.07-2.57-2.71
		S537.8,90,536.3,90s-2.81,0.32-3.94,0.95s-1.99,1.54-2.58,2.71c-0.6,1.17-0.9,2.54-0.9,4.11v20.71c0,1.59,0.3,2.98,0.9,4.15
		c0.6,1.17,1.46,2.07,2.58,2.71s2.44,0.95,3.94,0.95S539.11,125.97,540.24,125.33z"/>
</g>
<g>
	<path class="st1" d="M137.1,25.58h8.05V76.7h-8.05V25.58z M144.49,25.58h20.24v7.7h-20.18 M144.83,47.98h17.09v7.59h-17.09"/>
	<path class="st1" d="M181.01,25.58h6.12l15.61,51.12h-8.47l-10.2-37.55l-10.2,37.55h-8.47L181.01,25.58z M192.07,67.07h-16.45
		 M178.03,59.48h12.04"/>
	<path class="st1" d="M208.33,25.58h8.05V76.7h-8.05V25.58z M215.92,69h20.01v7.7h-19.89"/>
	<path class="st1" d="M242.22,25.58h8.05V76.7h-8.05V25.58z M249.62,25.58h20.54v7.73h-20.6 M249.85,47.49h17.5v7.66h-17.79
		 M249.85,68.97h20.31v7.73h-20.2"/>
	<path class="st1" d="M298.68,77.23c0,0-1.14-0.64-3.41-1.93c-2.27-1.29-4.01-3.13-5.22-5.52s-1.81-5.25-1.81-8.58V41.12
		c0-3.33,0.6-6.19,1.81-8.6c1.21-2.4,2.95-4.25,5.22-5.54c2.27-1.29,4.97-1.93,8.09-1.93c3.07,0,5.68,0.6,7.82,1.81
		c2.14,1.21,3.82,3.03,5.03,5.47c1.21,2.44,1.93,5.45,2.16,9.04h-8.19c-0.16-1.83-0.54-3.36-1.13-4.61
		c-0.59-1.24-1.36-2.17-2.32-2.79c-0.96-0.62-2.09-0.93-3.38-0.93c-1.43,0-2.65,0.33-3.67,0.98c-1.02,0.66-1.81,1.59-2.37,2.79
		c-0.56,1.21-0.84,2.64-0.84,4.31V61.2c0,1.66,0.28,3.11,0.84,4.32c0.56,1.22,1.35,2.14,2.37,2.78s2.24,0.95,3.67,0.95
		c1.31,0,2.44-0.31,3.39-0.93c0.95-0.62,1.72-1.55,2.3-2.79c0.59-1.24,0.96-2.78,1.13-4.61h8.19c-0.23,3.59-0.96,6.6-2.18,9.04
		c-1.22,2.44-2.91,4.26-5.06,5.47c-2.16,1.21-4.75,1.81-7.77,1.81C300.24,77.23,298.68,77.23,298.68,77.23z"/>
	<path class="st1" d="M332.88,75.33c-2.34-1.27-4.15-3.08-5.43-5.43s-1.92-5.12-1.92-8.28V40.67c0-3.19,0.64-5.95,1.92-8.3
		c1.28-2.34,3.09-4.15,5.43-5.41s5.1-1.9,8.26-1.9s5.92,0.63,8.26,1.9s4.15,3.07,5.43,5.41c1.28,2.34,1.92,5.11,1.92,8.3v20.95
		c0,3.16-0.64,5.92-1.92,8.28s-3.09,4.17-5.43,5.43s-5.1,1.9-8.26,1.9S335.23,76.6,332.88,75.33z M345.08,68.33
		c1.13-0.63,1.98-1.53,2.57-2.71c0.59-1.17,0.88-2.55,0.88-4.15V40.77c0-1.57-0.29-2.94-0.88-4.11c-0.59-1.17-1.44-2.07-2.57-2.71
		S342.65,33,341.15,33s-2.81,0.32-3.94,0.95s-1.99,1.54-2.58,2.71c-0.6,1.17-0.9,2.54-0.9,4.11v20.71c0,1.59,0.3,2.98,0.9,4.15
		c0.6,1.17,1.46,2.07,2.58,2.71s2.44,0.95,3.94,0.95S343.96,68.97,345.08,68.33z"/>
	<path class="st1" d="M365.51,25.58h7.73L392,66l0,0l-2.16-40.42h7.66v51.08h-7.84L372,38l0,0l1.17,38.67h-7.66V25.58z"/>
	<path class="st1" d="M413.6,75.33c-2.34-1.27-4.15-3.08-5.43-5.43s-1.92-5.12-1.92-8.28V40.67c0-3.19,0.64-5.95,1.92-8.3
		c1.28-2.34,3.09-4.15,5.43-5.41s5.1-1.9,8.26-1.9s5.92,0.63,8.26,1.9s4.15,3.07,5.43,5.41c1.28,2.34,1.92,5.11,1.92,8.3v20.95
		c0,3.16-0.64,5.92-1.92,8.28s-3.09,4.17-5.43,5.43s-5.1,1.9-8.26,1.9S415.95,76.6,413.6,75.33z M425.8,68.33
		c1.13-0.63,1.98-1.53,2.57-2.71c0.59-1.17,0.88-2.55,0.88-4.15V40.77c0-1.57-0.29-2.94-0.88-4.11c-0.59-1.17-1.44-2.07-2.57-2.71
		S423.37,33,421.87,33s-2.81,0.32-3.94,0.95s-1.99,1.54-2.58,2.71c-0.6,1.17-0.9,2.54-0.9,4.11v20.71c0,1.59,0.3,2.98,0.9,4.15
		c0.6,1.17,1.46,2.07,2.58,2.71s2.44,0.95,3.94,0.95S424.68,68.97,425.8,68.33z"/>
	<path class="st1" d="M455.93,77.23c0,0-1.07-0.42-3.22-1.27s-3.92-2.09-5.33-3.74s-2.4-3.69-2.99-6.1l7.63-3.34
		c0.66,2.2,1.69,3.87,3.11,4.99s3.18,1.69,5.29,1.69c2.37,0,4.21-0.52,5.52-1.55c1.31-1.03,1.97-2.5,1.97-4.39v-2.25
		c0-1.34-0.35-2.44-1.04-3.3c-0.69-0.87-1.61-1.53-2.76-2c-1.15-0.47-2.66-0.98-4.54-1.55c-0.05-0.02-0.09-0.05-0.12-0.07
		c-0.04-0.02-0.08-0.05-0.12-0.07l-0.42-0.11c-2.81-0.77-5.1-1.59-6.87-2.46c-1.77-0.87-3.28-2.22-4.52-4.06
		c-1.24-1.84-1.86-4.32-1.86-7.44V38.8c0-2.91,0.61-5.39,1.83-7.45c1.22-2.06,2.98-3.63,5.29-4.69c2.31-1.07,5.09-1.6,8.35-1.6
		c2.46,0,4.65,0.4,6.56,1.2c1.91,0.8,3.5,1.99,4.76,3.59c1.27,1.59,2.21,3.55,2.85,5.87l-7.28,3.38c-0.68-2.06-1.63-3.62-2.85-4.68
		s-2.65-1.58-4.29-1.58c-2.32,0-4.11,0.49-5.36,1.48s-1.88,2.38-1.88,4.18v1.62c0,1.41,0.38,2.55,1.13,3.45
		c0.75,0.89,1.69,1.58,2.83,2.07s2.7,1.03,4.69,1.62c0.12,0.02,0.23,0.05,0.35,0.09s0.23,0.09,0.35,0.16
		c0.12,0.02,0.22,0.04,0.32,0.05c0.09,0.01,0.19,0.03,0.28,0.05c2.63,0.82,4.76,1.67,6.42,2.55s3.06,2.21,4.22,3.99
		c1.16,1.78,1.74,4.14,1.74,7.07v2.29c0,2.91-0.62,5.39-1.86,7.45c-1.24,2.06-3.04,3.63-5.4,4.69c-2.36,1.07-5.21,1.6-8.56,1.6
		C457.34,77.23,455.93,77.23,455.93,77.23z"/>
	<path class="st1" d="M493.83,77.23c0,0-1.14-0.64-3.41-1.93c-2.27-1.29-4.01-3.13-5.22-5.52s-1.81-5.25-1.81-8.58V41.12
		c0-3.33,0.6-6.19,1.81-8.6c1.21-2.4,2.95-4.25,5.22-5.54c2.27-1.29,4.97-1.93,8.09-1.93c3.07,0,5.68,0.6,7.82,1.81
		c2.14,1.21,3.82,3.03,5.03,5.47c1.21,2.44,1.93,5.45,2.16,9.04h-8.19c-0.16-1.83-0.54-3.36-1.13-4.61
		c-0.59-1.24-1.36-2.17-2.32-2.79c-0.96-0.62-2.09-0.93-3.38-0.93c-1.43,0-2.65,0.33-3.67,0.98c-1.02,0.66-1.81,1.59-2.37,2.79
		c-0.56,1.21-0.84,2.64-0.84,4.31V61.2c0,1.66,0.28,3.11,0.84,4.32c0.56,1.22,1.35,2.14,2.37,2.78s2.24,0.95,3.67,0.95
		c1.31,0,2.44-0.31,3.39-0.93c0.95-0.62,1.72-1.55,2.3-2.79c0.59-1.24,0.96-2.78,1.13-4.61h8.19c-0.23,3.59-0.96,6.6-2.18,9.04
		c-1.22,2.44-2.91,4.26-5.06,5.47c-2.16,1.21-4.75,1.81-7.77,1.81C495.39,77.23,493.83,77.23,493.83,77.23z"/>
	<path class="st1" d="M528.04,75.33c-2.34-1.27-4.15-3.08-5.43-5.43s-1.92-5.12-1.92-8.28V40.67c0-3.19,0.64-5.95,1.92-8.3
		c1.28-2.34,3.09-4.15,5.43-5.41s5.1-1.9,8.26-1.9s5.92,0.63,8.26,1.9s4.15,3.07,5.43,5.41c1.28,2.34,1.92,5.11,1.92,8.3v20.95
		c0,3.16-0.64,5.92-1.92,8.28s-3.09,4.17-5.43,5.43s-5.1,1.9-8.26,1.9S530.38,76.6,528.04,75.33z M540.24,68.33
		c1.13-0.63,1.98-1.53,2.57-2.71c0.59-1.17,0.88-2.55,0.88-4.15V40.77c0-1.57-0.29-2.94-0.88-4.11c-0.59-1.17-1.44-2.07-2.57-2.71
		S537.8,33,536.3,33s-2.81,0.32-3.94,0.95s-1.99,1.54-2.58,2.71c-0.6,1.17-0.9,2.54-0.9,4.11v20.71c0,1.59,0.3,2.98,0.9,4.15
		c0.6,1.17,1.46,2.07,2.58,2.71s2.44,0.95,3.94,0.95S539.11,68.97,540.24,68.33z"/>
</g>
<path class="st2" d="M653.94,158.52c0-12.6-8.49-23.62-20.47-26.93c-0.75-17.54-15.26-31.59-32.98-31.59
	c-18.21,0-33.02,14.81-33.02,33.02c0,5.93,1.58,11.71,4.58,16.78l-4.46,16.11l16.11-4.46c4.66,2.76,9.92,4.31,15.35,4.54
	c3.32,11.98,14.33,20.47,26.94,20.47c5.03,0,9.92-1.34,14.22-3.89l13.61,3.76l-3.76-13.61C652.6,168.44,653.94,163.55,653.94,158.52
	z M584.51,155.98l-9.65,2.67l2.67-9.65l-0.61-0.95c-2.87-4.48-4.38-9.68-4.38-15.03c0-15.41,12.54-27.95,27.95-27.95
	s27.95,12.54,27.95,27.95s-12.54,27.95-27.95,27.95c-5.35,0-10.55-1.52-15.03-4.38L584.51,155.98z M646.55,179.08l-7.16-1.98
	l-0.96,0.62c-3.71,2.41-8.01,3.68-12.45,3.68c-9.91,0-18.61-6.41-21.7-15.59c15.17-1.75,27.24-13.82,28.99-28.99
	c9.18,3.08,15.59,11.79,15.59,21.7c0,4.44-1.27,8.74-3.68,12.45l-0.62,0.96L646.55,179.08z"/>
<path class="st2" d="M597.96,145.77h5.07v5.07h-5.07V145.77z"/>
<path class="st2" d="M605.56,125.33c0,1.44-0.59,2.77-1.65,3.74l-5.95,5.45v6.18h5.07v-3.95l4.3-3.94c2.09-1.92,3.3-4.64,3.3-7.48
	c0-5.59-4.55-10.13-10.13-10.13c-5.59,0-10.13,4.55-10.13,10.13h5.07c0-2.79,2.27-5.07,5.07-5.07S605.56,122.54,605.56,125.33z"/>
</svg>
