<svg id="Camada_1" data-name="Camada 1" xmlns="http://www.w3.org/2000/svg" viewBox="0 0 328.13 136.98"><defs><style>.cls-1{fill:#f04;}.cls-2{fill:none;stroke:#f04;stroke-miterlimit:10;}</style></defs><title>game-lounge</title><path class="cls-1" d="M219.56,153.87v10.25a15.25,15.25,0,0,1-1.57,7.09,11.07,11.07,0,0,1-4.45,4.64,13.57,13.57,0,0,1-6.79,1.63,14.86,14.86,0,0,1-6.87-1.52,10.63,10.63,0,0,1-4.52-4.41,13.81,13.81,0,0,1-1.58-6.76V147.45a15.48,15.48,0,0,1,1.56-7.15,11,11,0,0,1,4.46-4.67,15.05,15.05,0,0,1,13.3-.16,10.42,10.42,0,0,1,4.26,4.36,17.67,17.67,0,0,1,1.85,7.15h-7.09a9.27,9.27,0,0,0-.9-3.47,5.06,5.06,0,0,0-1.9-2.1,5.37,5.37,0,0,0-2.74-.7,6,6,0,0,0-3.17.82,5.38,5.38,0,0,0-2.06,2.35,8.24,8.24,0,0,0-.72,3.57v17.34a6.43,6.43,0,0,0,.75,3.17A5.12,5.12,0,0,0,203.5,170a6.81,6.81,0,0,0,3.25.73A6.3,6.3,0,0,0,210,170a5.16,5.16,0,0,0,2.08-2.25,7.89,7.89,0,0,0,.73-3.53v-4H206.9v-6.38Z" transform="translate(-193.28 -40.5)"/><path class="cls-1" d="M235.9,134.44H241L254,177H247l-8.5-31.29L230,177H222.9ZM230,162.68h17.25V169H230Z" transform="translate(-193.28 -40.5)"/><path class="cls-1" d="M284,134.44h7V177h-6.21V145.31l.41,1.88-8,23.55H272.5l-8-23,.47-2.46V177h-6.27v-42.6h7.06l9.08,26.66Z" transform="translate(-193.28 -40.5)"/><path class="cls-1" d="M298.69,134.44h6.71V177h-6.71Zm3,0H322v6.45h-20.3Zm0,18.25h17.95v6.39H301.68Zm0,17.9H322V177h-20.3Z" transform="translate(-193.28 -40.5)"/><path class="cls-1" d="M337.48,134.44h6.71V177h-6.71Zm3.13,36.18h19.86V177H340.61Z" transform="translate(-193.28 -40.5)"/><path class="cls-1" d="M371.4,175.9a11,11,0,0,1-4.52-4.53,14.18,14.18,0,0,1-1.6-6.9V147a14.14,14.14,0,0,1,1.6-6.91,11,11,0,0,1,4.52-4.52,15.79,15.79,0,0,1,13.77,0,11,11,0,0,1,4.53,4.52,14.25,14.25,0,0,1,1.59,6.91v17.46a14.29,14.29,0,0,1-1.59,6.9,11,11,0,0,1-4.53,4.53,15.79,15.79,0,0,1-13.77,0Zm10.17-5.83a5.2,5.2,0,0,0,2.14-2.26,7.64,7.64,0,0,0,.73-3.46V147.1a7.57,7.57,0,0,0-.73-3.43,5.2,5.2,0,0,0-2.14-2.26,7.2,7.2,0,0,0-6.56,0,5.3,5.3,0,0,0-2.16,2.26,7.44,7.44,0,0,0-.74,3.43v17.25a7.51,7.51,0,0,0,.74,3.46,5.3,5.3,0,0,0,2.16,2.26,7.2,7.2,0,0,0,6.56,0Z" transform="translate(-193.28 -40.5)"/><path class="cls-1" d="M403.88,175.94a10,10,0,0,1-4.29-4.48,15.69,15.69,0,0,1-1.47-7.08V134.44h6.71v30.12a6.64,6.64,0,0,0,1.52,4.66,5.65,5.65,0,0,0,4.34,1.64,5.74,5.74,0,0,0,4.38-1.64,6.6,6.6,0,0,0,1.54-4.66V134.44h6.71v29.94a15.42,15.42,0,0,1-1.5,7.08,10.17,10.17,0,0,1-4.32,4.48,15.83,15.83,0,0,1-13.62,0Z" transform="translate(-193.28 -40.5)"/><path class="cls-1" d="M430.58,134.44H437l14.62,31.64-.79.85V134.44h6.38V177h-6.53l-14.5-30.73.76-.85V177h-6.39Z" transform="translate(-193.28 -40.5)"/><path class="cls-1" d="M490.32,153.87v10.25a15.13,15.13,0,0,1-1.57,7.09,11,11,0,0,1-4.45,4.64,13.56,13.56,0,0,1-6.78,1.63,14.8,14.8,0,0,1-6.87-1.52,10.6,10.6,0,0,1-4.53-4.41,13.81,13.81,0,0,1-1.58-6.76V147.45a15.48,15.48,0,0,1,1.56-7.15,11,11,0,0,1,4.46-4.67,15.05,15.05,0,0,1,13.3-.16,10.31,10.31,0,0,1,4.26,4.36A17.67,17.67,0,0,1,490,147h-7.09a9.27,9.27,0,0,0-.9-3.47,5.06,5.06,0,0,0-1.9-2.1,5.34,5.34,0,0,0-2.74-.7,5.9,5.9,0,0,0-3.16.82,5.34,5.34,0,0,0-2.07,2.35,8.24,8.24,0,0,0-.72,3.57v17.34a6.43,6.43,0,0,0,.75,3.17,5.18,5.18,0,0,0,2.12,2.08,6.85,6.85,0,0,0,3.26.73,6.26,6.26,0,0,0,3.19-.78,5.16,5.16,0,0,0,2.08-2.25,7.89,7.89,0,0,0,.73-3.53v-4h-5.86v-6.38Z" transform="translate(-193.28 -40.5)"/><path class="cls-1" d="M497.61,134.44h6.71V177h-6.71Zm3,0h20.3v6.45H500.6Zm0,18.25h18v6.39h-18Zm0,17.9h20.3V177H500.6Z" transform="translate(-193.28 -40.5)"/><path class="cls-2" d="M219.56,107.87v10.25a15.25,15.25,0,0,1-1.57,7.09,11.07,11.07,0,0,1-4.45,4.64,13.57,13.57,0,0,1-6.79,1.63,14.86,14.86,0,0,1-6.87-1.52,10.63,10.63,0,0,1-4.52-4.41,13.81,13.81,0,0,1-1.58-6.76V101.45a15.48,15.48,0,0,1,1.56-7.15,11,11,0,0,1,4.46-4.67,15.05,15.05,0,0,1,13.3-.16,10.42,10.42,0,0,1,4.26,4.36,17.67,17.67,0,0,1,1.85,7.15h-7.09a9.27,9.27,0,0,0-.9-3.47,5.06,5.06,0,0,0-1.9-2.1,5.37,5.37,0,0,0-2.74-.7,6,6,0,0,0-3.17.82,5.38,5.38,0,0,0-2.06,2.35,8.24,8.24,0,0,0-.72,3.57v17.34a6.43,6.43,0,0,0,.75,3.17A5.12,5.12,0,0,0,203.5,124a6.81,6.81,0,0,0,3.25.73A6.3,6.3,0,0,0,210,124a5.16,5.16,0,0,0,2.08-2.25,7.89,7.89,0,0,0,.73-3.53v-4H206.9v-6.38Z" transform="translate(-193.28 -40.5)"/><path class="cls-2" d="M235.9,88.44H241L254,131H247l-8.5-31.29L230,131H222.9ZM245.13,123H231.77m1.78-6.33h9.91" transform="translate(-193.28 -40.5)"/><path class="cls-2" d="M284,88.44h7V131h-6.21l.76-33.54h0l-8.37,27.24H272.5l-8-26.24h0l.44,32.54h-6.27V88.44h7.06l9.08,26.66Z" transform="translate(-193.28 -40.5)"/><path class="cls-2" d="M298.69,88.44h6.71V131h-6.71Zm6.36,0H322v6.45H305.2m0,11.8h14.43v6.39H305.05m0,11.51H322V131H305.05" transform="translate(-193.28 -40.5)"/><path class="cls-2" d="M337.48,88.44h6.71V131h-6.71ZM344,124.62h16.43V131H343.9" transform="translate(-193.28 -40.5)"/><path class="cls-2" d="M371.4,129.9a11,11,0,0,1-4.52-4.53,14.18,14.18,0,0,1-1.6-6.9V101a14.14,14.14,0,0,1,1.6-6.91,11,11,0,0,1,4.52-4.52,15.79,15.79,0,0,1,13.77,0,11,11,0,0,1,4.53,4.52,14.25,14.25,0,0,1,1.59,6.91v17.46a14.29,14.29,0,0,1-1.59,6.9,11,11,0,0,1-4.53,4.53,15.79,15.79,0,0,1-13.77,0Zm10.17-5.83a5.2,5.2,0,0,0,2.14-2.26,7.64,7.64,0,0,0,.73-3.46V101.1a7.57,7.57,0,0,0-.73-3.43,5.2,5.2,0,0,0-2.14-2.26,7.2,7.2,0,0,0-6.56,0,5.3,5.3,0,0,0-2.16,2.26,7.44,7.44,0,0,0-.74,3.43v17.25a7.51,7.51,0,0,0,.74,3.46,5.3,5.3,0,0,0,2.16,2.26,7.2,7.2,0,0,0,6.56,0Z" transform="translate(-193.28 -40.5)"/><path class="cls-2" d="M403.88,129.94a10,10,0,0,1-4.29-4.48,15.69,15.69,0,0,1-1.47-7.08V88.44h6.71v30.12a6.64,6.64,0,0,0,1.52,4.66,5.65,5.65,0,0,0,4.34,1.64,5.74,5.74,0,0,0,4.38-1.64,6.6,6.6,0,0,0,1.54-4.66V88.44h6.71v29.94a15.42,15.42,0,0,1-1.5,7.08,10.17,10.17,0,0,1-4.32,4.48,15.83,15.83,0,0,1-13.62,0Z" transform="translate(-193.28 -40.5)"/><path class="cls-2" d="M430.58,88.44H437L451.5,121.5h0l-.64-33.06h6.38V131h-6.53L435.5,99.5h0L437,131h-6.39Z" transform="translate(-193.28 -40.5)"/><path class="cls-2" d="M490.32,107.87v10.25a15.13,15.13,0,0,1-1.57,7.09,11,11,0,0,1-4.45,4.64,13.56,13.56,0,0,1-6.78,1.63,14.8,14.8,0,0,1-6.87-1.52,10.6,10.6,0,0,1-4.53-4.41,13.81,13.81,0,0,1-1.58-6.76V101.45a15.48,15.48,0,0,1,1.56-7.15,11,11,0,0,1,4.46-4.67,15.05,15.05,0,0,1,13.3-.16,10.31,10.31,0,0,1,4.26,4.36A17.67,17.67,0,0,1,490,101h-7.09a9.27,9.27,0,0,0-.9-3.47,5.06,5.06,0,0,0-1.9-2.1,5.34,5.34,0,0,0-2.74-.7,5.9,5.9,0,0,0-3.16.82,5.34,5.34,0,0,0-2.07,2.35,8.24,8.24,0,0,0-.72,3.57v17.34a6.43,6.43,0,0,0,.75,3.17,5.18,5.18,0,0,0,2.12,2.08,6.85,6.85,0,0,0,3.26.73,6.26,6.26,0,0,0,3.19-.78,5.16,5.16,0,0,0,2.08-2.25,7.89,7.89,0,0,0,.73-3.53v-4h-5.86v-6.38Z" transform="translate(-193.28 -40.5)"/><path class="cls-2" d="M497.61,88.44h6.71V131h-6.71Zm6.45,0H520.9v6.45H504m.08,11.8h14.5v6.39H504.09m0,11.51H520.9V131H504.06" transform="translate(-193.28 -40.5)"/><path class="cls-2" d="M219.56,60.87V71.12A15.25,15.25,0,0,1,218,78.21a11.07,11.07,0,0,1-4.45,4.64,13.57,13.57,0,0,1-6.79,1.63A14.86,14.86,0,0,1,199.88,83a10.63,10.63,0,0,1-4.52-4.41,13.81,13.81,0,0,1-1.58-6.76V54.45a15.48,15.48,0,0,1,1.56-7.15,11,11,0,0,1,4.46-4.67,15.05,15.05,0,0,1,13.3-.16,10.42,10.42,0,0,1,4.26,4.36A17.67,17.67,0,0,1,219.21,54h-7.09a9.27,9.27,0,0,0-.9-3.47,5.06,5.06,0,0,0-1.9-2.1,5.37,5.37,0,0,0-2.74-.7,6,6,0,0,0-3.17.82,5.38,5.38,0,0,0-2.06,2.35,8.24,8.24,0,0,0-.72,3.57V71.79a6.43,6.43,0,0,0,.75,3.17A5.12,5.12,0,0,0,203.5,77a6.81,6.81,0,0,0,3.25.73A6.3,6.3,0,0,0,210,77,5.16,5.16,0,0,0,212,74.74a7.89,7.89,0,0,0,.73-3.53v-4H206.9V60.87Z" transform="translate(-193.28 -40.5)"/><path class="cls-2" d="M235.9,41.44H241L254,84H247l-8.5-31.29L230,84H222.9ZM245.13,76H231.77m1.78-6.33h9.91" transform="translate(-193.28 -40.5)"/><path class="cls-2" d="M284,41.44h7V84h-6.21l.76-33.54h0l-8.37,27.24H272.5l-8-26.24h0L264.94,84h-6.27V41.44h7.06l9.08,26.66Z" transform="translate(-193.28 -40.5)"/><path class="cls-2" d="M298.69,41.44h6.71V84h-6.71Zm6.36,0H322v6.45H305.2m0,11.8h14.43v6.39H305.05m0,11.51H322V84H305.05" transform="translate(-193.28 -40.5)"/><path class="cls-2" d="M337.48,41.44h6.71V84h-6.71ZM344,77.62h16.43V84H343.9" transform="translate(-193.28 -40.5)"/><path class="cls-2" d="M371.4,82.9a11,11,0,0,1-4.52-4.53,14.18,14.18,0,0,1-1.6-6.9V54a14.14,14.14,0,0,1,1.6-6.91,11,11,0,0,1,4.52-4.52,15.79,15.79,0,0,1,13.77,0,11,11,0,0,1,4.53,4.52A14.25,14.25,0,0,1,391.29,54V71.47a14.29,14.29,0,0,1-1.59,6.9,11,11,0,0,1-4.53,4.53,15.79,15.79,0,0,1-13.77,0Zm10.17-5.83a5.2,5.2,0,0,0,2.14-2.26,7.64,7.64,0,0,0,.73-3.46V54.1a7.57,7.57,0,0,0-.73-3.43,5.2,5.2,0,0,0-2.14-2.26,7.2,7.2,0,0,0-6.56,0,5.3,5.3,0,0,0-2.16,2.26,7.44,7.44,0,0,0-.74,3.43V71.35a7.51,7.51,0,0,0,.74,3.46A5.3,5.3,0,0,0,375,77.07a7.2,7.2,0,0,0,6.56,0Z" transform="translate(-193.28 -40.5)"/><path class="cls-2" d="M403.88,82.94a10,10,0,0,1-4.29-4.48,15.69,15.69,0,0,1-1.47-7.08V41.44h6.71V71.56a6.64,6.64,0,0,0,1.52,4.66,5.65,5.65,0,0,0,4.34,1.64,5.74,5.74,0,0,0,4.38-1.64,6.6,6.6,0,0,0,1.54-4.66V41.44h6.71V71.38a15.42,15.42,0,0,1-1.5,7.08,10.17,10.17,0,0,1-4.32,4.48,15.83,15.83,0,0,1-13.62,0Z" transform="translate(-193.28 -40.5)"/><path class="cls-2" d="M430.58,41.44H437L451.5,74.5h0l-.64-33.06h6.38V84h-6.53L435.5,52.5h0L437,84h-6.39Z" transform="translate(-193.28 -40.5)"/><path class="cls-2" d="M490.32,60.87V71.12a15.13,15.13,0,0,1-1.57,7.09,11,11,0,0,1-4.45,4.64,13.56,13.56,0,0,1-6.78,1.63A14.8,14.8,0,0,1,470.65,83a10.6,10.6,0,0,1-4.53-4.41,13.81,13.81,0,0,1-1.58-6.76V54.45a15.48,15.48,0,0,1,1.56-7.15,11,11,0,0,1,4.46-4.67,15.05,15.05,0,0,1,13.3-.16,10.31,10.31,0,0,1,4.26,4.36A17.67,17.67,0,0,1,490,54h-7.09a9.27,9.27,0,0,0-.9-3.47,5.06,5.06,0,0,0-1.9-2.1,5.34,5.34,0,0,0-2.74-.7,5.9,5.9,0,0,0-3.16.82,5.34,5.34,0,0,0-2.07,2.35,8.24,8.24,0,0,0-.72,3.57V71.79a6.43,6.43,0,0,0,.75,3.17A5.18,5.18,0,0,0,474.26,77a6.85,6.85,0,0,0,3.26.73,6.26,6.26,0,0,0,3.19-.78,5.16,5.16,0,0,0,2.08-2.25,7.89,7.89,0,0,0,.73-3.53v-4h-5.86V60.87Z" transform="translate(-193.28 -40.5)"/><path class="cls-2" d="M497.61,41.44h6.71V84h-6.71Zm6.45,0H520.9v6.45H504m.08,11.8h14.5v6.39H504.09m0,11.51H520.9V84H504.06" transform="translate(-193.28 -40.5)"/></svg>